<?xml version="1.0" encoding="UTF-8"?>
<svg width="232px" height="40px" viewBox="0 0 232 40" version="1.1" xmlns="http://www.w3.org/2000/svg" xmlns:xlink="http://www.w3.org/1999/xlink">
    <!-- Generator: sketchtool 57 (101010) - https://sketch.com -->
    <title>CB915397-8389-47D0-B5C3-49D69B1DF5FA</title>
    <desc>Created with sketchtool.</desc>
    <g id="Page-1" stroke="none" stroke-width="1" fill="none" fill-rule="evenodd">
        <g id="Web-Home" transform="translate(-540.000000, -4530.000000)">
            <g id="logo-sw-color" transform="translate(540.000000, 4530.000000)">
                <path d="M33.4560378,4.86688919 L31.7916455,9.27948376 L31.2312722,9.27948376 L29.8428846,5.66384068 L28.4544971,9.27948376 L27.8941238,9.27948376 L26.2380952,4.86688919 L26.8068323,4.86688919 L28.1868561,8.61675567 L29.600335,4.86688919 L30.1105256,4.86688919 L31.5156407,8.61675567 L32.9123921,4.86688919 L33.4560378,4.86688919 Z M35.8880121,9.32142857 C35.4642451,9.32142857 35.0823029,9.22495646 34.7421742,9.03200935 C34.4020454,8.83906223 34.1344071,8.57201624 33.9392512,8.23086337 C33.7440954,7.8897105 33.6465189,7.50382206 33.6465189,7.07318647 C33.6465189,6.64255088 33.7440954,6.25666244 33.9392512,5.91550957 C34.1344071,5.5743567 34.4020454,5.30870886 34.7421742,5.11855808 C35.0823029,4.9284073 35.4642451,4.83333333 35.8880121,4.83333333 C36.3117791,4.83333333 36.6937212,4.9284073 37.03385,5.11855808 C37.3739788,5.30870886 37.6402231,5.5743567 37.8325911,5.91550957 C38.024959,6.25666244 38.1211415,6.64255088 38.1211415,7.07318647 C38.1211415,7.50382206 38.024959,7.8897105 37.8325911,8.23086337 C37.6402231,8.57201624 37.3739788,8.83906223 37.03385,9.03200935 C36.6937212,9.22495646 36.3117791,9.32142857 35.8880121,9.32142857 Z M35.8880121,8.7929239 C36.2002615,8.7929239 36.4804453,8.72161843 36.728572,8.57900534 C36.9766988,8.43639226 37.1704577,8.23366101 37.3098548,7.97080552 C37.4492518,7.70795003 37.5189493,7.40874667 37.5189493,7.07318647 C37.5189493,6.73762627 37.4492518,6.43842291 37.3098548,6.17556742 C37.1704577,5.91271193 36.9766988,5.70998069 36.728572,5.5673676 C36.4804453,5.42475452 36.2002615,5.35344904 35.8880121,5.35344904 C35.5757627,5.35344904 35.2955789,5.42475452 35.0474521,5.5673676 C34.7993254,5.70998069 34.6041725,5.91271193 34.4619875,6.17556742 C34.3198025,6.43842291 34.2487111,6.73762627 34.2487111,7.07318647 C34.2487111,7.40874667 34.3198025,7.70795003 34.4619875,7.97080552 C34.6041725,8.23366101 34.7993254,8.43639226 35.0474521,8.57900534 C35.2955789,8.72161843 35.5757627,8.7929239 35.8880121,8.7929239 Z M44.81028,4.83333333 C45.3622923,4.83333333 45.7958106,4.99272204 46.1108479,5.31150423 C46.4258852,5.63028642 46.5834015,6.10006365 46.5834015,6.72085002 L46.5834015,9.27948376 L45.9895731,9.27948376 L45.9895731,6.77957276 C45.9895731,6.32097382 45.8794511,5.97143719 45.6592038,5.73095238 C45.4389564,5.49046757 45.1281057,5.37022697 44.7266422,5.37022697 C44.2694199,5.37022697 43.909781,5.51143977 43.6477145,5.7938696 C43.3856481,6.07629944 43.2546169,6.46638232 43.2546169,6.96412995 L43.2546169,9.27948376 L42.6607884,9.27948376 L42.6607884,6.77957276 C42.6607884,6.32097382 42.5506664,5.97143719 42.3304191,5.73095238 C42.1101718,5.49046757 41.7965332,5.37022697 41.3894938,5.37022697 C40.9378474,5.37022697 40.5796024,5.51143977 40.314748,5.7938696 C40.0498936,6.07629944 39.9174684,6.46638232 39.9174684,6.96412995 L39.9174684,9.27948376 L39.32364,9.27948376 L39.32364,4.86688919 L39.8923771,4.86688919 L39.8923771,5.67222964 C40.0485018,5.40378148 40.2659579,5.19685579 40.544752,5.05144637 C40.8235461,4.90603695 41.1441544,4.83333333 41.5065867,4.83333333 C41.8745949,4.83333333 42.1938093,4.91162954 42.4642396,5.0682243 C42.7346699,5.22481906 42.9367925,5.45691138 43.0706137,5.76450823 C43.2323143,5.47368939 43.4651038,5.24579151 43.7689894,5.08080774 C44.0728749,4.91582398 44.4199683,4.83333333 44.81028,4.83333333 Z M52.0505917,7.25774366 L48.3705283,7.25774366 C48.4039836,7.7163426 48.5796212,8.08685143 48.8974465,8.36928126 C49.2152717,8.6517111 49.6167292,8.7929239 50.1018309,8.7929239 C50.3750491,8.7929239 50.62596,8.74398877 50.8545711,8.64611704 C51.0831823,8.54824532 51.2811231,8.40423623 51.4483995,8.21408545 L51.7829507,8.59997775 C51.5877949,8.83486989 51.3438537,9.01383264 51.05112,9.13687138 C50.7583862,9.25991012 50.4363838,9.32142857 50.0851033,9.32142857 C49.6334569,9.32142857 49.2333934,9.22495646 48.8849008,9.03200935 C48.5364082,8.83906223 48.2645881,8.57201624 48.0694322,8.23086337 C47.8742763,7.8897105 47.7766999,7.50382206 47.7766999,7.07318647 C47.7766999,6.64255088 47.8700945,6.25666244 48.0568865,5.91550957 C48.2436786,5.5743567 48.5001653,5.30870886 48.8263543,5.11855808 C49.1525434,4.9284073 49.5191521,4.83333333 49.9261915,4.83333333 C50.3332308,4.83333333 50.6984456,4.9284073 51.0218467,5.11855808 C51.3452479,5.30870886 51.5989467,5.57295855 51.7829507,5.91131509 C51.9669548,6.24967162 52.0589555,6.63695821 52.0589555,7.07318647 L52.0505917,7.25774366 Z M49.9261915,5.34506008 C49.5024245,5.34506008 49.1469674,5.48068029 48.8598095,5.75192479 C48.5726516,6.02316928 48.4095595,6.37690036 48.3705283,6.81312862 L51.4902184,6.81312862 C51.4511873,6.37690036 51.2880952,6.02316928 51.0009373,5.75192479 C50.7137794,5.48068029 50.3555344,5.34506008 49.9261915,5.34506008 Z M55.5029472,4.83333333 C56.0549595,4.83333333 56.4940536,4.99412018 56.8202427,5.31569871 C57.1464317,5.63727723 57.3095238,6.10565632 57.3095238,6.72085002 L57.3095238,9.27948376 L56.7156954,9.27948376 L56.7156954,6.77957276 C56.7156954,6.32097382 56.6013915,5.97143719 56.3727804,5.73095238 C56.1441692,5.49046757 55.8179851,5.37022697 55.3942181,5.37022697 C54.9202681,5.37022697 54.5452957,5.51143977 54.2692896,5.7938696 C53.9932835,6.07629944 53.8552825,6.46638232 53.8552825,6.96412995 L53.8552825,9.27948376 L53.261454,9.27948376 L53.261454,4.86688919 L53.8301911,4.86688919 L53.8301911,5.6806186 C53.9918917,5.41217044 54.2163176,5.20384661 54.5034755,5.05564085 C54.7906334,4.9074351 55.1237873,4.83333333 55.5029472,4.83333333 Z" id="women" fill="#2A3842" fill-rule="nonzero"></path>
                <polygon id="Fill-1" fill="#2A3842" points="153.630952 14.1547619 153.630952 14.526511 153.148035 14.526511 153.148035 15.8809524 152.727763 15.8809524 152.727763 14.526511 152.25 14.526511 152.25 14.1547619"></polygon>
                <polygon id="Fill-2" fill="#2A3842" points="154.423364 14.1547619 154.839286 15.1620958 155.255207 14.1547619 155.702381 14.1547619 155.702381 15.8809524 155.340475 15.8809524 155.33816 14.7877975 154.973939 15.7088856 154.705018 15.7088856 154.340797 14.7877975 154.340797 15.8809524 153.97619 15.8809524 153.97619 14.1547619"></polygon>
                <g id="Group-94">
                    <path d="M46.6635075,22.6443949 L46.6635075,21.8724567 L44.9132928,21.8724567 C44.0882855,21.8724567 43.6755765,22.1683187 43.6755765,22.7923259 C43.6755765,23.4003959 44.1215486,23.7943337 44.8804403,23.7943337 C45.7555477,23.7943337 46.4819976,23.3178488 46.6635075,22.6443949 M49.5520598,19.8680325 L49.5520598,25.6504183 L46.6635075,25.6504183 L46.6635075,24.6484105 C46.0857149,25.3876569 45.1777551,25.7820033 43.9724805,25.7820033 C42.0575929,25.7820033 40.9188446,24.6320645 40.9188446,23.0060495 C40.9188446,21.3138332 42.1237085,20.3445174 44.3359109,20.3118255 L46.6635075,20.3118255 L46.6635075,20.213341 C46.6635075,19.3756102 46.0857149,18.8827793 44.9629821,18.8827793 C44.2201059,18.8827793 43.2464412,19.1287861 42.2887921,19.5889251 L41.4798003,17.6176015 C42.8830109,16.9935942 44.1708273,16.6486943 45.6401534,16.6486943 C48.0995705,16.6486943 49.5356336,17.831325 49.5520598,19.8680325" id="Fill-3" fill="#2A3842"></path>
                    <path d="M62.2415268,25.2806725 C61.5980293,25.658673 60.7064958,25.8719879 59.8317991,25.8719879 C58.0980106,25.8883338 56.8434574,24.8699801 56.8434574,23.0302415 L56.8434574,19.2191793 L56.8434574,17.2805476 L56.8434574,14.8392775 L59.7656835,14.8392775 L59.7656835,17.2805476 L62.0768539,17.2805476 L62.0768539,19.3797784 L59.7656835,19.3797784 L59.7656835,22.5701025 C59.7656835,23.227619 60.0625876,23.5226638 60.5742646,23.5063178 C60.8715794,23.5063178 61.2514359,23.3914874 61.6805711,23.2108644 L62.2415268,25.2806725 Z" id="Fill-5" fill="#2A3842"></path>
                    <path d="M56.1410719,16.7524912 L56.1410719,19.4303692 C54.5070728,19.2656836 53.4171925,19.9889926 53.2689458,21.2210699 L53.2689458,25.7546238 L50.3307041,25.7546238 L50.3307041,16.8677302 L53.2689458,16.8677302 L53.2689458,18.3458143 C53.8795908,17.3274605 54.8865186,16.7524912 56.1410719,16.7524912" id="Fill-7" fill="#2A3842"></path>
                    <path d="M71.7391723,17.0534204 L71.7391723,25.940314 L68.8009306,25.940314 L68.8009306,24.4949219 C68.1898749,25.5296216 67.2162102,26.0551444 65.9452308,26.0714904 C64.0139169,26.0714904 62.7593637,24.7409287 62.7593637,22.6711206 L62.7593637,17.0534204 L65.6976054,17.0534204 L65.6976054,21.8333898 C65.6976054,22.8353976 66.2585611,23.4434675 67.1336684,23.4434675 C68.1734487,23.4271216 68.8009306,22.6057367 68.8009306,21.4390433 L68.8009306,17.0534204 L71.7391723,17.0534204 Z" id="Fill-9" fill="#2A3842"></path>
                    <path d="M35.29705,14.8393592 L38.2188654,14.8393592 L38.2188654,17.2806293 L40.5296251,17.2806293 L40.5296251,19.3974321 L38.2188654,19.3974321 L38.2188654,22.5701843 C38.2188654,23.2272921 38.5157695,23.5227455 39.0274465,23.5063995 C39.3251719,23.5063995 39.7042071,23.3915691 40.133753,23.2105375 L40.6951194,25.2807542 C40.0512112,25.6587547 39.1596776,25.8720696 38.2845703,25.8720696 C36.5516032,25.8884155 35.29705,24.8700618 35.29705,23.0303232 L35.29705,14.8393592 Z" id="Fill-11" fill="#2A3842"></path>
                    <path d="M79.3302665,21.5062661 C79.3302665,20.1920504 78.5541272,19.2885271 77.3989526,19.2885271 C76.2762199,19.2885271 75.5004912,20.1920504 75.5004912,21.5062661 C75.5004912,22.8204819 76.2762199,23.7076592 77.3989526,23.7076592 C78.5541272,23.7076592 79.3302665,22.8204819 79.3302665,21.5062661 M82.2849344,21.5720586 C82.2849344,24.2826286 80.6673615,26.0733293 78.1915182,26.0733293 C77.0519485,26.0733293 76.1275625,25.6295363 75.5004912,24.8244974 L75.5004912,29.1610825 L72.5622496,29.1610825 L72.5622496,17.0875426 L75.5004912,17.0875426 L75.5004912,18.2374814 C76.1275625,17.4324425 77.0190961,16.9886495 78.1249919,16.9886495 C80.6180828,16.9886495 82.2849344,18.8120421 82.2849344,21.5720586" id="Fill-13" fill="#2A3842"></path>
                    <path d="M26.7591069,24.4278625 L27.9450806,22.5166103 C28.9803437,23.1982372 30.1158067,23.5472236 31.0508698,23.5472236 C31.6023804,23.5472236 31.8524698,23.3809034 31.8524698,23.0650175 L31.8524698,23.031917 C31.8524698,22.6829306 31.3518805,22.533365 30.3995698,22.2673344 C28.6132175,21.8018829 27.1935806,21.2036206 27.1935806,19.3924874 L27.1935806,19.3593868 C27.1935806,17.4481346 28.7298437,16.3844208 30.8176174,16.3844208 C32.1366435,16.3844208 33.5061804,16.7665078 34.5414434,17.43138 L33.4560804,19.425588 C32.5206066,18.9102814 31.5021805,18.5948042 30.7839436,18.5948042 C30.2997805,18.5948042 30.0492805,18.7774704 30.0492805,19.0267464 L30.0492805,19.059847 C30.0492805,19.409242 30.5667067,19.5751536 31.5190173,19.8575302 C33.3053697,20.3560822 34.7250065,20.9710992 34.7250065,22.7164398 L34.7250065,22.7495404 C34.7250065,24.7269937 33.2388435,25.7576069 31.0344436,25.7576069 C29.5146068,25.7576069 28.0116068,25.3252561 26.7591069,24.4278625" id="Fill-15" fill="#2A3842"></path>
                    <path d="M101.047712,20.4614728 C101.047712,19.4304509 100.378754,18.7320695 99.3763433,18.7320695 C98.4067851,18.7320695 97.7719114,19.4304509 97.5715114,20.4614728 L101.047712,20.4614728 Z M103.921891,22.0413105 L97.6380376,22.0413105 C97.9222114,23.0559864 98.6745326,23.6211482 99.6937801,23.6211482 C100.462528,23.6211482 101.214438,23.3052624 101.81646,22.7065914 L103.370381,24.2533285 C102.451333,25.284759 101.097401,25.8503294 99.4264433,25.8503294 C96.4684901,25.8503294 94.6464107,24.0371531 94.6464107,21.2930739 C94.6464107,18.4987308 96.5350163,16.6532711 99.3595064,16.6532711 C102.51827,16.6532711 104.122291,18.7651701 103.921891,22.0413105 L103.921891,22.0413105 Z" id="Fill-17" fill="#2A3842"></path>
                    <path d="M110.773518,20.4602877 C110.773518,19.4292658 110.10497,18.7308844 109.10256,18.7308844 C108.133002,18.7308844 107.497717,19.4292658 107.297317,20.4602877 L110.773518,20.4602877 Z M113.648108,22.0401254 L107.364254,22.0401254 C107.648428,23.0548013 108.400338,23.6199631 109.419997,23.6199631 C110.188744,23.6199631 110.940655,23.3040773 111.542265,22.7054063 L113.096597,24.2521434 C112.17755,25.2835739 110.823618,25.8491444 109.15266,25.8491444 C106.194707,25.8491444 104.372627,24.035968 104.372627,21.2918888 C104.372627,18.4975457 106.261233,16.6520861 109.085723,16.6520861 C112.244076,16.6520861 113.848508,18.763985 113.648108,22.0401254 L113.648108,22.0401254 Z" id="Fill-19" fill="#2A3842"></path>
                    <polygon id="Fill-21" fill="#2A3842" points="122.964038 17.1336382 119.369569 17.1336382 117.164347 19.623129 117.164347 14.094923 114.189557 14.094923 114.189557 25.8529857 117.164347 25.8529857 117.164347 23.4080377 117.164347 22.6405945 119.475518 25.7307996 122.798133 25.7307996 119.475518 21.1625104"></polygon>
                    <path d="M128.338249,20.5640437 C128.338249,19.5334305 127.669701,18.8346404 126.66729,18.8346404 C125.697322,18.8346404 125.062448,19.5334305 124.862048,20.5640437 L128.338249,20.5640437 Z M131.212839,22.1438814 L124.928574,22.1438814 C125.213158,23.1585573 125.965069,23.7237191 126.984727,23.7237191 C127.753475,23.7237191 128.505385,23.408242 129.106996,22.8091623 L130.661328,24.3558994 C129.74187,25.3873299 128.388349,25.9529004 126.71739,25.9529004 C123.759437,25.9529004 121.937358,24.1401327 121.937358,21.3956448 C121.937358,18.6017104 123.825963,16.7558421 126.650453,16.7558421 C129.808807,16.7558421 131.413239,18.867741 131.212839,22.1438814 L131.212839,22.1438814 Z" id="Fill-23" fill="#2A3842"></path>
                    <path d="M141.049727,20.2842825 L141.049727,25.9555157 L138.091774,25.9555157 L138.091774,21.1322295 C138.091774,20.1179623 137.489752,19.4861907 136.554279,19.4861907 C135.551047,19.5025366 134.899336,20.1845721 134.78271,21.1988394 L134.78271,25.9555157 L131.80792,25.9555157 L131.80792,16.9578782 L134.78271,16.9578782 L134.78271,18.4216596 C135.417584,17.3906377 136.454079,16.8414132 137.773926,16.8414132 C139.745895,16.8414132 141.049727,18.1719749 141.049727,20.2842825" id="Fill-25" fill="#2A3842"></path>
                    <path d="M148.548218,21.4982566 C148.548218,20.1513489 147.762634,19.253138 146.609512,19.253138 C145.439554,19.253138 144.65438,20.1681035 144.65438,21.4982566 C144.65438,22.8288183 145.439554,23.7437838 146.609512,23.7437838 C147.762634,23.7437838 148.548218,22.8288183 148.548218,21.4982566 L148.548218,21.4982566 Z M151.523008,14.0951682 L151.523008,25.9553931 L148.548218,25.9553931 L148.548218,24.7915603 C147.92977,25.6227527 147.010312,26.0714495 145.874028,26.0714495 C143.333712,26.0714495 141.662343,24.2092352 141.662343,21.4153008 C141.662343,18.6712216 143.317285,16.8584539 145.807091,16.8584539 C146.97746,16.8584539 147.912934,17.3239053 148.548218,18.1387517 L148.548218,14.0951682 L151.523008,14.0951682 Z" id="Fill-27" fill="#2A3842"></path>
                    <polygon id="Fill-29" fill="#2A3842" points="81.8631909 17.0873383 84.9533752 17.0873383 86.039149 21.2257285 87.0604497 17.0873383 89.8886357 17.0873383 90.9263627 21.2588291 92.0429356 17.0873383 95.0838412 17.0873383 92.4125257 25.7625516 89.6742734 25.7625516 88.4661243 21.0929175 87.2251227 25.7625516 84.5028859 25.7625516"></polygon>
                    <polygon id="Fill-31" fill="#6D90A2" points="194.1278 22.6619669 196.655386 14.5878765 191.380102 10.5512399 177.726621 23.8666646 192.398118 23.8666646 194.116712 22.6991539"></polygon>
                    <polygon id="Fill-33" fill="#6D90A2" points="211.050881 10.5517303 205.776008 14.5879582 208.310986 22.6967838 210.032865 23.8667464 224.703951 23.8667464"></polygon>
                    <polygon id="Fill-35" fill="#11AF4B" points="208.59056 5.9648068 203.021658 5.95132138 201.215594 0.63316103 199.407477 5.95132138 193.840217 5.9648068 198.291725 9.37130632 196.656494 14.5934341 201.215594 11.4860658 205.77223 14.5934341 204.139463 9.37130632"></polygon>
                    <polygon id="Fill-37" fill="#11AF4B" points="201.234443 17.8862883 201.215553 17.8736202 192.397954 23.866869 210.033153 23.866869"></polygon>
                    <path d="M172.261163,30.4458346 L172.261163,29.5982962 L173.699279,29.5982962 L173.699279,27.7606009 L174.76452,27.3012792 L174.76452,29.5982962 L176.575512,29.5982962 L176.575512,30.4458346 L174.76452,30.4458346 L174.76452,36.1701922 C174.76452,37.3536402 174.888538,37.6372428 175.741059,37.6372428 C176.095866,37.6372428 176.344313,37.6192622 176.575512,37.5837097 L176.575512,38.5027617 C176.256022,38.5379055 175.900394,38.5558861 175.563246,38.5558861 C174.125129,38.5558861 173.699279,37.9196193 173.699279,36.8240309 L173.699279,30.4458346 L172.261163,30.4458346 Z" id="Fill-39" fill="#6D90A2"></path>
                    <path d="M182.878461,33.4320793 C182.878461,31.4534 182.559382,30.2691347 180.854339,30.2691347 C179.150529,30.2691347 178.831038,31.4534 178.831038,33.4320793 L182.878461,33.4320793 Z M178.831038,34.2800263 L178.831038,34.9690088 C178.831038,36.2055812 179.167776,37.8487596 180.854339,37.8487596 C182.186096,37.8487596 182.843145,37.0008125 182.825076,35.799384 L183.943702,35.799384 C183.819684,37.9550084 182.647673,38.6971153 180.854339,38.6971153 C179.310274,38.6971153 177.765387,38.0784204 177.765387,35.3756148 L177.765387,33.1848466 C177.765387,30.6050443 178.848697,29.4215963 180.854339,29.4215963 C183.943702,29.4215963 183.943702,31.6295278 183.943702,34.2800263 L178.831038,34.2800263 Z" id="Fill-41" fill="#6D90A2"></path>
                    <path d="M189.874844,32.1598727 C189.927818,31.0463037 189.519216,30.269053 188.294641,30.269053 C187.637591,30.269053 187.087313,30.6405151 186.856524,31.2943537 C186.714437,31.700551 186.608077,32.9195515 186.608077,34.1034082 C186.608077,35.7106254 186.608077,37.8486778 188.258913,37.8486778 C189.661303,37.8486778 189.838706,36.965587 189.892091,35.8875705 L190.957332,35.8875705 C191.046445,38.2904276 189.341813,38.6970335 188.507771,38.6970335 C185.471382,38.6970335 185.471382,36.3113397 185.471382,34.1034082 C185.471382,33.2199086 185.506699,31.8243717 185.737898,31.1529611 C186.199475,29.8808362 187.211741,29.4215146 188.436727,29.4215146 C189.981204,29.4215146 191.028376,30.2870335 190.940085,32.1598727 L189.874844,32.1598727 Z" id="Fill-43" fill="#6D90A2"></path>
                    <path d="M192.786762,38.5202519 L192.786762,25.7638593 L193.852414,25.7638593 L193.852414,30.6938029 L193.88773,30.6938029 C194.402693,29.951696 195.095058,29.4212694 196.053529,29.4212694 C198.272712,29.4212694 198.503911,31.0644477 198.503911,32.2299152 L198.503911,38.5202519 L197.43867,38.5202519 L197.43867,32.2834482 C197.43867,31.2413928 197.030068,30.2692164 195.787424,30.2692164 C194.828543,30.2692164 193.852414,30.9230551 193.852414,32.919715 L193.852414,38.5202519 L192.786762,38.5202519 Z" id="Fill-45" fill="#6D90A2"></path>
                    <path d="M203.049542,38.6970335 C201.114532,38.6970335 200.351123,37.7604096 200.368781,35.8695899 L201.45127,35.8695899 C201.45127,37.0885904 201.736265,37.9018022 203.102927,37.9018022 C204.132851,37.9018022 204.630155,37.3190685 204.630155,36.3289116 C204.630155,33.997568 200.599159,34.5982823 200.599159,31.6474266 C200.599159,30.0046569 201.736265,29.4215146 203.297578,29.4215146 C205.074074,29.4215146 205.6416,30.6405151 205.6416,32.0009082 L204.594428,32.0009082 C204.540632,30.8697672 204.238801,30.269053 203.031473,30.269053 C202.268474,30.269053 201.66481,30.7639271 201.66481,31.5591584 C201.66481,33.7850705 205.694986,33.1847648 205.694986,36.169947 C205.694986,37.8486778 204.718036,38.6970335 203.049542,38.6970335" id="Fill-47" fill="#6D90A2"></path>
                    <path d="M206.779117,30.4458346 L206.779117,29.5982962 L208.216822,29.5982962 L208.216822,27.7606009 L209.282063,27.3012792 L209.282063,29.5982962 L211.093055,29.5982962 L211.093055,30.4458346 L209.282063,30.4458346 L209.282063,36.1701922 C209.282063,37.3536402 209.406081,37.6372428 210.259013,37.6372428 C210.613409,37.6372428 210.862267,37.6192622 211.093055,37.5837097 L211.093055,38.5027617 C210.773154,38.5379055 210.417937,38.5558861 210.081199,38.5558861 C208.642672,38.5558861 208.216822,37.9196193 208.216822,36.8240309 L208.216822,30.4458346 L206.779117,30.4458346 Z" id="Fill-49" fill="#6D90A2"></path>
                    <path d="M217.076391,33.9620564 C215.549162,34.0151808 213.241688,33.8382357 213.241688,36.0110234 C213.241688,37.0183436 213.75624,37.8487187 214.857208,37.8487187 C216.082194,37.8487187 217.076391,36.7531303 217.076391,35.5872542 L217.076391,33.9620564 Z M217.147845,37.4249495 L217.112118,37.4249495 C216.543771,38.2724879 215.674412,38.6970744 214.573034,38.6970744 C212.975172,38.6970744 212.105404,37.6190579 212.105404,36.0645564 C212.105404,32.9371643 215.265399,33.255502 217.076391,33.1141094 L217.076391,32.3720025 C217.076391,31.0643251 216.686268,30.2690938 215.265399,30.2690938 C214.289271,30.2690938 213.508204,30.7463961 213.508204,31.806432 L212.371509,31.806432 C212.460621,30.092966 213.791967,29.4215554 215.354922,29.4215554 C216.260008,29.4215554 218.141632,29.5098237 218.141632,31.7888601 L218.141632,36.2766453 C218.141632,36.9120948 218.141632,37.4780739 218.248403,38.5201293 L217.147845,38.5201293 L217.147845,37.4249495 Z" id="Fill-51" fill="#6D90A2"></path>
                    <path d="M221.355793,30.7994387 L221.39152,30.7994387 C221.835439,29.9519003 222.776662,29.4214737 223.859561,29.4214737 L223.859561,30.4994902 C222.350401,30.3756695 221.355793,31.276741 221.355793,32.7785267 L221.355793,38.5204562 L220.290552,38.5204562 L220.290552,29.5984188 L221.355793,29.5984188 L221.355793,30.7994387 Z" id="Fill-53" fill="#6D90A2"></path>
                    <path d="M227.446228,38.6970335 C225.511219,38.6970335 224.74781,37.7604096 224.765878,35.8695899 L225.848778,35.8695899 C225.848778,37.0885904 226.132951,37.9018022 227.500024,37.9018022 C228.529538,37.9018022 229.026842,37.3190685 229.026842,36.3289116 C229.026842,33.997568 224.996256,34.5982823 224.996256,31.6474266 C224.996256,30.0046569 226.132951,29.4215146 227.694264,29.4215146 C229.470761,29.4215146 230.038287,30.6405151 230.038287,32.0009082 L228.991115,32.0009082 C228.93773,30.8697672 228.635487,30.269053 227.42857,30.269053 C226.665161,30.269053 226.061497,30.7639271 226.061497,31.5591584 C226.061497,33.7850705 230.091672,33.1847648 230.091672,36.169947 C230.091672,37.8486778 229.115133,38.6970335 227.446228,38.6970335" id="Fill-55" fill="#6D90A2"></path>
                    <path d="M230.89471,29.3783204 L231.095931,29.3783204 C231.158351,29.3766858 231.208451,29.3619744 231.24582,29.3337776 C231.284011,29.3055808 231.302901,29.2683937 231.302901,29.2222164 C231.302901,29.1601017 231.286065,29.1159676 231.252391,29.0902227 C231.218717,29.0636605 231.159172,29.0505837 231.072934,29.0505837 L230.89471,29.0505837 L230.89471,29.3783204 Z M230.89471,29.543006 L230.89471,29.9774 L230.712789,29.9774 L230.712789,28.8867154 L231.069238,28.8867154 C231.200648,28.8867154 231.302901,28.9145035 231.375998,28.9704885 C231.448684,29.0268821 231.484822,29.1082033 231.484822,29.215678 C231.484822,29.3207008 231.429794,29.4016134 231.319738,29.456781 C231.424456,29.4996892 231.477841,29.5871401 231.478662,29.7191338 L231.478662,29.7971858 C231.478662,29.8711513 231.485643,29.9242757 231.500427,29.9569676 L231.500427,29.9774 L231.313578,29.9774 C231.300848,29.9467514 231.295099,29.8915837 231.295099,29.8123058 C231.295099,29.7330278 231.293867,29.6860332 231.291403,29.6717305 C231.277441,29.589592 231.221181,29.5462752 231.122213,29.543006 L230.89471,29.543006 Z M230.316506,29.4461561 C230.316506,29.5932698 230.351001,29.72935 230.419581,29.8552139 C230.488571,29.9806692 230.582201,30.078745 230.70047,30.14985 C230.818738,30.220955 230.946863,30.2560988 231.084433,30.2560988 C231.223234,30.2560988 231.351769,30.2201377 231.470449,30.1478068 C231.589539,30.0754759 231.682758,29.9774 231.750106,29.8531707 C231.817864,29.7289414 231.851537,29.5932698 231.851537,29.4461561 C231.851537,29.2998597 231.817864,29.1650055 231.750106,29.0411848 C231.682758,28.9173641 231.589539,28.8196969 231.470449,28.7481833 C231.351769,28.6766697 231.223234,28.6407086 231.084433,28.6407086 C230.946863,28.6407086 230.818328,28.6762611 230.699648,28.7469574 C230.580969,28.8176537 230.48775,28.9153208 230.41917,29.0403675 C230.350591,29.1654141 230.316506,29.300677 230.316506,29.4461561 L230.316506,29.4461561 Z M230.167438,29.4465648 C230.167438,29.2737062 230.208093,29.113107 230.288582,28.9647674 C230.36907,28.8168364 230.480358,28.6999627 230.623266,28.6149637 C230.765764,28.529556 230.91976,28.4866479 231.084433,28.4866479 C231.249927,28.4866479 231.403512,28.529556 231.545599,28.6149637 C231.687686,28.6999627 231.798974,28.8168364 231.879462,28.9647674 C231.959951,29.113107 232.000195,29.2737062 232.000195,29.4465648 C232.000195,29.6153369 231.961593,29.7738928 231.883979,29.9210065 C231.806365,30.0681202 231.69672,30.1866284 231.553812,30.2761226 C231.411725,30.3656168 231.254855,30.4101595 231.084433,30.4101595 C230.915242,30.4101595 230.759193,30.3660254 230.616285,30.2773485 C230.474198,30.1886717 230.363732,30.0705721 230.285707,29.9234584 C230.206861,29.7763447 230.167438,29.6169715 230.167438,29.4465648 L230.167438,29.4465648 Z" id="Fill-57" fill="#6D90A2"></path>
                    <polygon id="Fill-59" fill="#2A3842" points="162.879199 39.6389699 163.037712 39.6389699 163.037712 6.00264772 162.879199 6.00264772"></polygon>
                    <path d="M17.558653,10.8047659 C17.558653,10.5534466 15.558349,10.2751566 13.0903081,10.2751566 C10.6222672,10.2751566 8.62196321,10.5534466 8.62196321,10.8047659 C8.62196321,11.0560851 10.6222672,11.3343752 13.0903081,11.3343752 C15.558349,11.3343752 17.558653,11.0560851 17.558653,10.8047659" id="Fill-61" fill="#C32137"></path>
                    <path d="M11.1473727,5.09724461 C12.5592071,5.09724461 13.7037045,3.95833936 13.7037045,2.5534035 C13.7037045,1.14846764 12.5592071,0.00956239067 11.1473727,0.00956239067 C9.73553833,0.00956239067 8.59063018,1.14846764 8.59063018,2.5534035 C8.59063018,3.95833936 9.73553833,5.09724461 11.1473727,5.09724461" id="Fill-62" fill="#C32137"></path>
                    <path d="M15.1324169,7.90707546 C16.1405766,7.90707546 16.9586028,7.09345496 16.9586028,6.08981259 C16.9586028,5.08617021 16.1405766,4.27214106 15.1324169,4.27214106 C14.1238464,4.27214106 13.3058202,5.08617021 13.3058202,6.08981259 C13.3058202,7.09345496 14.1238464,7.90707546 15.1324169,7.90707546" id="Fill-63" fill="#C32137"></path>
                    <path d="M13.102792,35.8688135 C6.62962593,35.8688135 2.58754169,35.5819417 1.32066879,35.3400214 L9.20484794,16.1878606 C9.26151843,16.0505545 9.2627504,15.8969024 9.20936515,15.758779 L7.03124722,10.1296366 C8.05870783,9.8770914 10.3115651,9.41613513 13.0945789,9.41613513 C15.8821099,9.41613513 18.1386631,9.87750005 19.1648918,10.1308625 L17.0344099,15.7309908 C16.9822566,15.8678883 16.9843099,16.0194971 17.0397484,16.1551687 L24.8865579,35.3396128 C23.620917,35.5815331 19.5780114,35.8688135 13.102792,35.8688135 M26.1620545,35.3776172 L18.206832,15.9283684 L20.4839179,9.94329257 C20.5401778,9.79331832 20.5331966,9.62740675 20.4629745,9.48397089 C20.3927524,9.34012638 20.2658597,9.2314257 20.1130958,9.18361375 C19.9919524,9.14560938 17.1029894,8.25475418 13.0945789,8.25475418 C12.8982855,8.25475418 12.7052773,8.25761472 12.5143224,8.26129257 C12.5824912,8.09415505 12.6210929,7.91189752 12.6210929,7.72024106 C12.6210929,6.92582707 11.9738995,6.28138732 11.1751741,6.28138732 C10.3764487,6.28138732 9.72925529,6.92582707 9.72925529,7.72024106 C9.72925529,7.98218518 9.80070939,8.22655739 9.92349545,8.43823766 C7.64230293,8.70140773 6.164353,9.15664291 6.07893661,9.18361375 C5.92494071,9.2314257 5.79845875,9.34094368 5.72864728,9.48519684 C5.65883581,9.62985865 5.65185466,9.79658751 5.70975712,9.94574446 L8.03694308,15.9606517 L0.0443508177,35.3759826 C-0.0106770487,35.529226 0.00123196716,35.6571332 0.00123196716,35.6571332 C0.00123196716,36.3183276 0.821722094,36.4409223 1.48082452,36.5398154 C2.12760728,36.6366653 3.04706544,36.7232989 4.21291702,36.7968557 C6.58897101,36.9472386 9.74609218,37.0301944 13.102792,37.0301944 C16.4599025,37.0301944 19.6170237,36.9472386 21.9930777,36.7968557 C23.1593399,36.7232989 24.0783874,36.6366653 24.7247595,36.5398154 C25.3842726,36.4409223 26.2047627,36.3183276 26.2047627,35.6571332 C26.2047627,35.6571332 26.2047627,35.5071589 26.1620545,35.3776172" id="Fill-64" fill="#C32137"></path>
                    <path d="M15.8422353,25.4035942 C15.4948205,25.6312118 15.2114681,25.9356554 14.9856074,26.2817812 C14.7683706,26.6144217 14.6119107,26.9854751 14.528137,27.3732832 C14.4800902,27.5955883 14.4558616,27.8227973 14.4558616,28.0504149 L14.4558616,29.0981914 C13.9610214,28.8546364 13.4382567,28.7161044 12.8867461,28.7161044 C12.8300756,28.7161044 12.6748477,28.717739 12.6748477,28.7205995 L12.6748477,25.5985198 C12.6748477,24.7473036 12.3779436,23.8560397 11.6855781,23.273306 L11.6855781,21.6742618 C11.6855781,20.4822322 12.8120067,19.4377249 14.0107108,19.4377249 C15.2090041,19.4377249 16.3358434,20.4793716 16.3358434,21.6701753 L16.3358434,25.1048716 L16.3358434,25.1355203 L16.3358434,25.142876 C16.1613148,25.2082599 15.9974631,25.3018405 15.8422353,25.4035942 M23.1441046,34.3746695 L20.9861088,29.1047297 L20.9861088,28.0520495 C20.9861088,27.1775402 20.6690826,26.3561554 20.0551523,25.7395038 C19.8904793,25.5740009 19.7216998,25.4289304 19.5303343,25.3042924 C19.528281,25.3030665 15.828273,16.0643259 15.828273,16.0643259 C15.8188279,16.039807 15.8015803,15.9960815 15.7679066,15.9960815 C15.0229771,16.0667778 14.0994124,16.1129552 13.0982337,16.1129552 C12.0954125,16.1129552 11.1702051,16.0667778 10.424865,15.9956729 C10.3903699,15.9956729 10.3698372,16.0373551 10.3591601,16.0606481 C10.3591601,16.0606481 7.5946258,22.9251369 7.59216187,22.9263629 C6.75237092,23.5205388 6.24356849,24.4972103 6.24356849,25.5997458 L6.24356849,26.4762983 L3.05195224,34.3734435 C3.58991123,34.5724557 6.836966,34.7183434 7.33180614,34.6729834 L7.33180614,25.6001544 C7.33180614,24.4077161 8.26933315,23.4379916 9.46310932,23.4379916 C10.6568855,23.4379916 11.58661,24.4073075 11.58661,25.5985198 L11.58661,28.9527122 C10.4979617,29.4300145 9.70662816,30.5787273 9.70662816,31.9178707 L9.70662816,34.7996646 L10.7948658,34.7996646 L10.7948658,31.9178707 C10.7948658,30.7867297 11.7291076,29.8660431 12.8805862,29.8660431 C14.0230304,29.8660431 14.9507017,30.7883643 14.9507017,31.9215485 L14.9507017,34.7996646 L16.1379074,34.7996646 L16.1379074,31.9215485 C16.1379074,31.2771087 15.9399713,30.6763945 15.6089828,30.1733473 C15.6085722,29.4672016 15.6056976,27.9748148 15.6069295,27.9862569 C15.6882394,26.8718707 16.627409,25.9793809 17.7682106,25.9793809 C18.9090122,25.9793809 19.8485925,26.8522555 19.9299023,27.9666418 C19.9315449,27.9490699 19.9282597,34.526687 19.927849,34.673392 C20.1845088,34.6537769 22.6767784,34.5557011 23.1441046,34.3746695" id="Fill-65" fill="#C32137"></path>
                    <path d="M8.53186535,26.7053505 C8.84807025,26.7041202 9.10349811,26.4478971 9.10227058,26.1336459 C9.10062352,25.8189861 8.84355304,25.5648063 8.52734814,25.566433 C8.21114323,25.5676668 7.95612603,25.8238898 7.95735355,26.1381411 C7.95858997,26.4523923 8.21524979,26.7065721 8.53186535,26.7053505" id="Fill-66" fill="#C32137"></path>
                    <path d="M10.9440649,26.1326652 C10.9432357,25.8180053 10.6857546,25.5638255 10.3699603,25.5654523 C10.0533448,25.5670947 9.79832759,25.8225004 9.79955511,26.137569 C9.80120218,26.4518202 10.057862,26.7055913 10.3740669,26.7043698 C10.6906825,26.7031394 10.9456997,26.447325 10.9440649,26.1326652" id="Fill-67" fill="#C32137"></path>
                    <path d="M13.1376978,22.407754 C13.4543133,22.4065203 13.7093305,22.1502972 13.708103,21.836046 C13.7064559,21.5213862 13.4493855,21.2672064 13.1335912,21.2688331 C12.8173863,21.2700669 12.5619584,21.5262899 12.5635932,21.8405412 C12.5644224,22.155201 12.8214929,22.4093808 13.1376978,22.407754" id="Fill-68" fill="#C32137"></path>
                    <path d="M14.9800225,22.407342 C15.2966381,22.4061116 15.5516553,22.1494799 15.5504278,21.8352287 C15.5491913,21.5205689 15.2917102,21.2667977 14.9755053,21.2684245 C14.6593004,21.2696583 14.4042832,21.5254726 14.4055107,21.8397239 C14.4067471,22.1543837 14.6638176,22.4085635 14.9800225,22.407342" id="Fill-69" fill="#C32137"></path>
                    <path d="M16.8721187,29.1656229 C17.1883236,29.1643925 17.4437515,28.9081695 17.442524,28.5939183 C17.4408769,28.2792584 17.1838064,28.0250786 16.8676015,28.0267054 C16.5513966,28.0279392 16.2963794,28.2841622 16.2980142,28.5984134 C16.2988434,28.9126646 16.5555032,29.1668444 16.8721187,29.1656229" id="Fill-70" fill="#C32137"></path>
                    <path d="M19.2843183,28.5929784 C19.2830785,28.2783185 19.026008,28.0241387 18.7098031,28.0257655 C18.3935982,28.0274079 18.138581,28.2832223 18.1398085,28.5978822 C18.1414556,28.9121334 18.3981154,29.1663132 18.7143203,29.1646864 C19.0309359,29.1634526 19.2859531,28.9076382 19.2843183,28.5929784" id="Fill-71" fill="#C32137"></path>
                    <path d="M12.0428896,32.3334715 C12.340615,32.3322409 12.5812593,32.0907293 12.580032,31.7948672 C12.5783847,31.4985966 12.3360978,31.2591282 12.0383724,31.2603494 C11.740647,31.2615801 11.5000028,31.5030917 11.501637,31.7989537 C11.5028773,32.0952244 11.7443429,32.3346928 12.0428896,32.3334715" id="Fill-72" fill="#C32137"></path>
                    <path d="M14.3151382,31.7939274 C14.3143085,31.4976567 14.071611,31.2581883 13.7742963,31.2598146 C13.4761602,31.2610488 13.2359266,31.5021518 13.2367458,31.7984225 C13.2383905,32.0946931 13.4802668,32.3337529 13.7779922,32.3329377 C14.0761282,32.3317097 14.3167725,32.0906067 14.3151382,31.7939274" id="Fill-73" fill="#C32137"></path>
                    <path d="M14.0693113,24.0555014 C13.7124515,24.0555014 13.3555917,23.9594689 13.043904,23.7661778 C12.8931933,23.6725971 12.8467893,23.4756282 12.9408294,23.325654 C13.0348696,23.1756797 13.2332163,23.1295024 13.3839269,23.223083 C13.8003318,23.4813493 14.3382908,23.4813493 14.7551064,23.223083 C14.905817,23.1295024 15.1041637,23.1756797 15.1977932,23.3252453 C15.2918334,23.4752196 15.2454293,23.6725971 15.0951293,23.7661778 C14.7834416,23.9594689 14.4261711,24.0555014 14.0693113,24.0555014" id="Fill-74" fill="#C32137"></path>
                    <path d="M9.47025473,28.4057762 C9.11339491,28.4057762 8.75653509,28.3097436 8.4448474,28.1164526 C8.29413675,28.0228719 8.24773266,27.825903 8.34177282,27.6759288 C8.43540232,27.5259545 8.63374903,27.4797772 8.78445968,27.5733578 C9.20127524,27.8316241 9.73923423,27.8316241 10.1560498,27.5733578 C10.3067604,27.4797772 10.5051071,27.5259545 10.5987366,27.6759288 C10.6927768,27.8254944 10.6463727,28.0228719 10.4956621,28.1164526 C10.184385,28.309335 9.82711455,28.4057762 9.47025473,28.4057762" id="Fill-75" fill="#C32137"></path>
                    <path d="M12.9119192,33.9504916 C12.5550594,33.9504916 12.1981996,33.8540504 11.8869226,33.661168 C11.7362119,33.5675874 11.6898078,33.3702098 11.783848,33.2202356 C11.8774775,33.07067 12.0758242,33.0244926 12.2265349,33.1180733 C12.6433504,33.3759309 13.1813094,33.3763396 13.598125,33.1176646 C13.7484249,33.024084 13.9471823,33.0702613 14.0408118,33.2202356 C14.134852,33.3698012 14.0884479,33.5675874 13.9377372,33.6607594 C13.6260495,33.8540504 13.2691897,33.9504916 12.9119192,33.9504916" id="Fill-76" fill="#C32137"></path>
                    <path d="M17.7980653,30.8796566 C17.4412054,30.8796566 17.0843456,30.7832154 16.7726579,30.5899243 C16.6219473,30.4967523 16.5755432,30.2993747 16.6695833,30.1494005 C16.7636235,29.9994262 16.9619702,29.9536575 17.1122702,30.0472382 C17.5290858,30.3050958 18.0670448,30.3050958 18.4838603,30.0468295 C18.634571,29.9532489 18.8329177,29.9994262 18.9265472,30.1494005 C19.0205873,30.2993747 18.9741832,30.4967523 18.8238832,30.5899243 C18.5121956,30.7832154 18.1549251,30.8796566 17.7980653,30.8796566" id="Fill-77" fill="#C32137"></path>
                    <path d="M116.75246,32.0066293 C117.004602,32.0066293 117.211573,32.0491288 117.373371,32.1345364 L117.184059,32.7446497 C117.062915,32.6845782 116.926578,32.6543382 116.775456,32.6543382 C116.603802,32.6543382 116.463769,32.7135923 116.355356,32.8312833 C116.246943,32.9493829 116.192736,33.1058955 116.192736,33.3020471 L116.192736,33.7687245 L117.161062,33.7687245 L117.161062,34.4013134 L116.192736,34.4013134 L116.192736,37.4592352 L115.496264,37.4592352 L115.496264,34.4013134 L114.800202,34.4013134 L114.800202,33.7687245 L115.496264,33.7687245 L115.496264,33.2342114 C115.496264,32.8676531 115.614122,32.5717911 115.848196,32.3453994 C116.08268,32.1198251 116.384512,32.0066293 116.75246,32.0066293" id="Fill-78" fill="#1D1C1A"></path>
                    <path d="M118.054238,35.614225 C118.054238,36.0106147 118.170043,36.331813 118.402885,36.5778198 C118.634495,36.8242352 118.921954,36.94683 119.265262,36.94683 C119.60816,36.94683 119.895619,36.8242352 120.12805,36.5778198 C120.36007,36.331813 120.475875,36.0106147 120.475875,35.614225 C120.475875,35.2223305 120.36007,34.9035841 120.12805,34.6575773 C119.891101,34.4066667 119.603232,34.2808028 119.265262,34.2808028 C118.927292,34.2808028 118.639833,34.4066667 118.402885,34.6575773 C118.170043,34.9035841 118.054238,35.2223305 118.054238,35.614225 M117.358588,35.614225 C117.358588,35.0466113 117.537223,34.5774821 117.895315,34.20602 C118.258745,33.8345579 118.714983,33.6482138 119.265262,33.6482138 C119.81513,33.6482138 120.269315,33.8345579 120.627407,34.20602 C120.990837,34.5774821 121.172347,35.0466113 121.172347,35.614225 C121.172347,36.1863339 120.990837,36.6558718 120.627407,37.0220214 C120.269315,37.3934835 119.81513,37.5798276 119.265262,37.5798276 C118.714983,37.5798276 118.258745,37.3934835 117.895315,37.0220214 C117.537223,36.6505593 117.358588,36.1814301 117.358588,35.614225" id="Fill-79" fill="#1D1C1A"></path>
                    <path d="M122.38296,37.4591126 L121.686899,37.4591126 L121.686899,33.7690105 L122.352982,33.7690105 L122.352982,34.3713594 L122.38296,34.3713594 C122.454004,34.1756165 122.598555,34.0088876 122.818255,33.8703555 C123.037956,33.7326408 123.25314,33.6635791 123.465449,33.6635791 C123.667081,33.6635791 123.838735,33.6934104 123.98,33.7538905 L123.768102,34.4240752 C123.682275,34.3889313 123.545937,34.3713594 123.3595,34.3713594 C123.097091,34.3713594 122.868766,34.4767909 122.674526,34.6876539 C122.479875,34.8981082 122.38296,35.1445237 122.38296,35.4256743 L122.38296,37.4591126 Z" id="Fill-80" fill="#1D1C1A"></path>
                    <path d="M129.110651,36.0168671 C129.110651,36.4900828 128.936533,36.8701265 128.588707,37.1569983 C128.235544,37.4385575 127.806408,37.5795415 127.302123,37.5795415 C126.852866,37.5795415 126.456994,37.4491824 126.113685,37.1876469 C125.770377,36.9273374 125.53384,36.570178 125.40243,36.1186207 L126.068513,35.8476863 C126.113685,36.0082854 126.176926,36.1537645 126.257826,36.2841236 C126.338314,36.4148914 126.432765,36.5264526 126.541178,36.6196246 C126.650002,36.7123879 126.769503,36.7851275 126.900912,36.8378432 C127.031912,36.890559 127.170713,36.9167125 127.317317,36.9167125 C127.634754,36.9167125 127.894699,36.8353914 128.096331,36.6723403 C128.298374,36.5088807 128.399395,36.2914793 128.399395,36.0209535 C128.399395,35.7945619 128.316032,35.6012708 128.149716,35.4406717 C127.992846,35.285385 127.700459,35.1350021 127.271735,34.9887057 C126.837671,34.833419 126.568281,34.7279876 126.462332,34.6728199 C125.886593,34.3814531 125.599134,33.9523714 125.599134,33.3847577 C125.599134,32.988368 125.758058,32.6491892 126.075905,32.3680386 C126.39868,32.0872966 126.794963,31.9463126 127.263932,31.9463126 C127.677873,31.9463126 128.036375,32.0521528 128.339029,32.2626071 C128.641271,32.4685663 128.843725,32.7272412 128.944335,33.0386319 L128.293446,33.3095663 C128.232669,33.1089195 128.112757,32.9421907 127.934122,32.8085624 C127.754666,32.6757514 127.536607,32.6091416 127.279126,32.6091416 C127.006862,32.6091416 126.777305,32.684333 126.590457,32.8343073 C126.403608,32.974474 126.3108,33.1563228 126.3108,33.3814885 C126.3108,33.566198 126.383486,33.7267971 126.53009,33.8616513 C126.691478,33.9965055 127.042178,34.1562874 127.58178,34.3409968 C128.132058,34.5273408 128.524234,34.7549584 128.75913,35.0242582 C128.993614,35.293558 129.110651,35.6245638 129.110651,36.0168671" id="Fill-81" fill="#1D1C1A"></path>
                    <path d="M131.032766,37.5189797 C130.730523,37.5189797 130.479202,37.4262163 130.280034,37.2406896 C130.080455,37.0547542 129.978613,36.7960793 129.973685,36.4650735 L129.973685,34.4013951 L129.322385,34.4013951 L129.322385,33.7688062 L129.973685,33.7688062 L129.973685,32.6397086 L130.669746,32.6397086 L130.669746,33.7688062 L131.577706,33.7688062 L131.577706,34.4013951 L130.669746,34.4013951 L130.669746,36.2390905 C130.669746,36.4850973 130.717382,36.6522348 130.813476,36.7400944 C130.909159,36.8279539 131.017982,36.8716794 131.139126,36.8716794 C131.194564,36.8716794 131.24836,36.865141 131.301335,36.8528815 C131.354309,36.8402134 131.403588,36.8242761 131.449582,36.8038436 L131.668872,37.4213125 C131.486541,37.4866964 131.275053,37.5189797 131.032766,37.5189797" id="Fill-82" fill="#1D1C1A"></path>
                    <path d="M132.653337,36.3293611 C132.653337,36.509984 132.730129,36.6607756 132.884125,36.7809184 C133.038121,36.9014699 133.218399,36.9623586 133.425369,36.9623586 C133.717756,36.9623586 133.978933,36.8540666 134.20849,36.6382999 C134.438046,36.4225331 134.552619,36.168762 134.552619,35.8778037 C134.335793,35.7069884 134.03314,35.6215807 133.64466,35.6215807 C133.362128,35.6215807 133.126001,35.6894165 132.936689,35.825088 C132.747787,35.9603509 132.653337,36.1287143 132.653337,36.3293611 M133.553494,33.6482138 C134.068456,33.6482138 134.474595,33.7851113 134.77191,34.0584976 C135.069635,34.3322926 135.218703,34.7078412 135.218703,35.1847347 L135.218703,37.459276 L134.552619,37.459276 L134.552619,36.94683 L134.522642,36.94683 C134.235182,37.3685559 133.85163,37.5798276 133.371984,37.5798276 C132.963382,37.5798276 132.621716,37.459276 132.346988,37.218173 C132.071848,36.97707 131.934279,36.6763042 131.934279,36.3142411 C131.934279,35.9325627 132.07924,35.6289364 132.369574,35.4029534 C132.659497,35.1773791 133.046745,35.0641832 133.531319,35.0641832 C133.944849,35.0641832 134.285693,35.1397833 134.552619,35.2901662 L134.552619,35.1316103 C134.552619,34.890916 134.456937,34.6861828 134.26516,34.5182279 C134.073384,34.3498645 133.848755,34.2660914 133.591685,34.2660914 C133.203205,34.2660914 132.895213,34.4291424 132.668531,34.7552445 L132.055422,34.3715229 C132.393392,33.8893169 132.892749,33.6482138 133.553494,33.6482138" id="Fill-83" fill="#1D1C1A"></path>
                    <path d="M140.213591,37.5189797 C139.910527,37.5189797 139.659205,37.4262163 139.460448,37.2406896 C139.26128,37.0547542 139.159027,36.7960793 139.153688,36.4650735 L139.153688,34.4013951 L138.50321,34.4013951 L138.50321,33.7688062 L139.153688,33.7688062 L139.153688,32.6397086 L139.85016,32.6397086 L139.85016,33.7688062 L140.75812,33.7688062 L140.75812,34.4013951 L139.85016,34.4013951 L139.85016,36.2390905 C139.85016,36.4850973 139.897796,36.6522348 139.9943,36.7400944 C140.089573,36.8279539 140.197986,36.8716794 140.319129,36.8716794 C140.374978,36.8716794 140.428774,36.865141 140.482159,36.8528815 C140.534723,36.8402134 140.584002,36.8242761 140.629585,36.8038436 L140.849286,37.4213125 C140.667365,37.4866964 140.455467,37.5189797 140.213591,37.5189797 L140.213591,37.5189797 Z M135.869674,33.7688062 L136.535347,33.7688062 L136.535347,34.3715638 L136.565325,34.3715638 C136.772296,33.899574 137.198556,33.6633747 137.844518,33.6633747 L137.988247,33.6789034 L137.988247,34.4013951 L137.678202,34.3715638 C137.355427,34.3715638 137.088911,34.4704569 136.879887,34.6686517 C136.670042,34.8672552 136.565325,35.1193917 136.565325,35.4258786 L136.565325,37.4593169 L135.869674,37.4593169 L135.869674,33.7688062 Z" id="Fill-84" fill="#1D1C1A"></path>
                    <path d="M144.57882,37.4591126 L143.912736,37.4591126 L143.912736,36.9466665 L143.882348,36.9466665 C143.776399,37.1276981 143.613779,37.2784897 143.394078,37.3990412 C143.174788,37.5187754 142.946053,37.5796641 142.709104,37.5796641 C142.25533,37.5796641 141.905862,37.450531 141.661111,37.191856 C141.41636,36.9331811 141.293985,36.5649882 141.293985,36.0885033 L141.293985,33.7690105 L141.990457,33.7690105 L141.990457,36.0431432 C142.00524,36.6454921 142.311179,36.9466665 142.906219,36.9466665 C143.183822,36.9466665 143.415432,36.8355139 143.602281,36.6119828 C143.788718,36.3884517 143.882348,36.1211952 143.882348,35.8098045 L143.882348,33.7690105 L144.57882,33.7690105 L144.57882,37.4591126 Z" id="Fill-85" fill="#1D1C1A"></path>
                    <path d="M147.075648,36.9467074 C147.408689,36.9467074 147.688757,36.8212521 147.915849,36.5703415 C148.142942,36.3247433 148.256283,36.0051797 148.256283,35.6141024 C148.256283,35.2275203 148.142942,34.908774 147.915849,34.6574547 C147.688757,34.4065441 147.408689,34.2810888 147.075648,34.2810888 C146.737678,34.2810888 146.455147,34.4065441 146.228465,34.6574547 C146.0063,34.908774 145.895012,35.2275203 145.895012,35.6141024 C145.895012,36.0051797 146.0063,36.3267866 146.228465,36.5781058 C146.455147,36.8241126 146.737678,36.9467074 147.075648,36.9467074 M147.188989,37.579705 C146.916724,37.579705 146.668277,37.5216768 146.444059,37.4064377 C146.21943,37.29079 146.046544,37.1379552 145.925401,36.9467074 L145.895012,36.9467074 L145.925401,37.4591534 L145.925401,39.0855772 L145.22934,39.0855772 L145.22934,33.7690514 L145.895012,33.7690514 L145.895012,34.2810888 L145.925401,34.2810888 C146.046544,34.0906583 146.21943,33.9374149 146.444059,33.8217672 C146.668277,33.7061194 146.916724,33.6484999 147.188989,33.6484999 C147.67849,33.6484999 148.092431,33.8393391 148.430401,34.2210174 C148.778226,34.6071909 148.952344,35.071825 148.952344,35.6141024 C148.952344,36.1612837 148.778226,36.6259178 148.430401,37.0071875 C148.092431,37.3888658 147.67849,37.579705 147.188989,37.579705" id="Fill-86" fill="#1D1C1A"></path>
                    <path d="M152.348385,36.4347108 C152.348385,36.7563177 152.206709,37.0272521 151.924588,37.2483313 C151.641646,37.4690019 151.286019,37.5797458 150.857294,37.5797458 C150.484008,37.5797458 150.155894,37.4824873 149.873774,37.2896049 C149.590832,37.0963138 149.3892,36.8417254 149.268056,36.525431 L149.888557,36.2614436 C149.979312,36.4825228 150.111954,36.6545641 150.286483,36.7775675 C150.459779,36.9005709 150.650324,36.9622769 150.857294,36.9622769 C151.079459,36.9622769 151.264665,36.914465 151.413733,36.8188411 C151.56239,36.7236258 151.637129,36.6108386 151.637129,36.4796622 C151.637129,36.2438717 151.455209,36.0710131 151.091778,35.9602691 L150.456494,35.8025306 C149.734972,35.621499 149.374416,35.2749645 149.374416,34.7629271 C149.374416,34.4270174 149.511575,34.1569003 149.786715,33.9538017 C150.061854,33.7502944 150.413375,33.6485408 150.84251,33.6485408 C151.170214,33.6485408 151.466707,33.7261841 151.73158,33.8818794 C151.996453,34.0375748 152.182069,34.2459859 152.288019,34.5071127 L151.667107,34.7629271 C151.596474,34.6072317 151.481901,34.4854543 151.322567,34.3980034 C151.164054,34.3101438 150.98624,34.2660097 150.789125,34.2660097 C150.608026,34.2660097 150.444585,34.3113697 150.301266,34.4012725 C150.157126,34.4919927 150.085672,34.6023279 150.085672,34.732687 C150.085672,34.9439586 150.28484,35.0947502 150.683176,35.184653 L151.24331,35.3280889 C151.980027,35.5083032 152.348385,35.877722 152.348385,36.4347108" id="Fill-87" fill="#1D1C1A"></path>
                    <path d="M91.5260021,37.5776617 C89.8361539,37.5776617 88.4152851,36.2082783 88.4152851,34.526687 C88.4152851,32.844687 89.8361539,31.4753036 91.5260021,31.4753036 C92.4610652,31.4753036 93.1263275,31.8402273 93.6277381,32.3163036 L93.0368045,32.9039411 C92.6778914,32.5692574 92.1916751,32.3089479 91.5260021,32.3089479 C90.2923924,32.3089479 89.3273514,33.2986962 89.3273514,34.526687 C89.3273514,35.7546777 90.2923924,36.744426 91.5260021,36.744426 C92.3263701,36.744426 92.7826086,36.4244537 93.0745849,36.1343128 C93.3135865,35.8960704 93.470457,35.5536224 93.5304127,35.0844931 L91.5260021,35.0844931 L91.5260021,34.2512574 L94.3455643,34.2512574 C94.3755422,34.4004144 94.3907364,34.5789941 94.3907364,34.7722851 C94.3907364,35.3975184 94.218261,36.1714999 93.6651078,36.7219503 C93.1263275,37.2801651 92.4388898,37.5776617 91.5260021,37.5776617" id="Fill-88" fill="#1D1C1A"></path>
                    <path d="M97.8992146,35.6130399 C97.8992146,34.9064855 97.3928761,34.4226449 96.8052278,34.4226449 C96.2179901,34.4226449 95.711241,34.9064855 95.711241,35.6130399 C95.711241,36.3126473 96.2179901,36.8038436 96.8052278,36.8038436 C97.3928761,36.8038436 97.8992146,36.3126473 97.8992146,35.6130399 M98.7509146,35.6130399 C98.7509146,36.7445895 97.8770392,37.5778252 96.8052278,37.5778252 C95.7334164,37.5778252 94.859541,36.7445895 94.859541,35.6130399 C94.859541,34.4745433 95.7334164,33.6482547 96.8052278,33.6482547 C97.8770392,33.6482547 98.7509146,34.4745433 98.7509146,35.6130399" id="Fill-89" fill="#1D1C1A"></path>
                    <path d="M102.26161,35.6130399 C102.26161,34.9064855 101.754861,34.4226449 101.167213,34.4226449 C100.579565,34.4226449 100.073226,34.9064855 100.073226,35.6130399 C100.073226,36.3126473 100.579565,36.8038436 101.167213,36.8038436 C101.754861,36.8038436 102.26161,36.3126473 102.26161,35.6130399 M103.1129,35.6130399 C103.1129,36.7445895 102.239024,37.5778252 101.167213,37.5778252 C100.095401,37.5778252 99.2215261,36.7445895 99.2215261,35.6130399 C99.2215261,34.4745433 100.095401,33.6482547 101.167213,33.6482547 C102.239024,33.6482547 103.1129,34.4745433 103.1129,35.6130399" id="Fill-90" fill="#1D1C1A"></path>
                    <path d="M106.603186,35.6206 C106.603186,34.9287569 106.139555,34.4224406 105.549033,34.4224406 C104.951118,34.4224406 104.449707,34.9287569 104.449707,35.6206 C104.449707,36.305496 104.951118,36.804048 105.549033,36.804048 C106.139555,36.804048 106.603186,36.305496 106.603186,35.6206 L106.603186,35.6206 Z M107.365773,33.7677846 L107.365773,37.2952443 C107.365773,38.7459488 106.506271,39.3413507 105.489077,39.3413507 C104.531838,39.3413507 103.95651,38.7014061 103.739273,38.180787 L104.494469,37.8681704 C104.629164,38.1881427 104.958099,38.5677778 105.489077,38.5677778 C106.139555,38.5677778 106.543641,38.1660757 106.543641,37.4141612 L106.543641,37.1313759 L106.513663,37.1313759 C106.319423,37.3692098 105.944905,37.5776208 105.474293,37.5776208 C104.487077,37.5776208 103.582402,36.7219095 103.582402,35.6206 C103.582402,34.5119347 104.487077,33.648459 105.474293,33.648459 C105.944905,33.648459 106.319423,33.8568701 106.513663,34.0877569 L106.543641,34.0877569 L106.543641,33.7677846 L107.365773,33.7677846 Z" id="Fill-91" fill="#1D1C1A"></path>
                    <polygon id="Fill-92" fill="#1D1C1A" points="108.01888 37.4588265 108.886185 37.4588265 108.886185 31.6837964 108.01888 31.6837964"></polygon>
                    <path d="M110.225292,35.5535815 L111.990291,34.8245514 C111.892965,34.5789532 111.6014,34.4077292 111.25727,34.4077292 C110.815815,34.4077292 110.202706,34.79472 110.225292,35.5535815 M112.29664,36.2605446 L112.969705,36.7071981 C112.752878,37.0271704 112.229292,37.5776208 111.324618,37.5776208 C110.202706,37.5776208 109.392893,36.7145538 109.392893,35.6132443 C109.392893,34.4449163 110.210098,33.648459 111.227292,33.648459 C112.252289,33.648459 112.752878,34.4596276 112.917551,34.8985169 L113.007074,35.122048 L110.367379,36.2086461 C110.569422,36.6029926 110.883574,36.804048 111.324618,36.804048 C111.765662,36.804048 112.072422,36.5878725 112.29664,36.2605446" id="Fill-93" fill="#1D1C1A"></path>
                </g>
                <path d="M36.25,36.5066208 L36.25,32.5409982 L36.7226376,32.5409982 L36.7226376,36.5066208 L36.25,36.5066208 Z M37.4624183,36.5066208 L37.4624183,32.5409982 L38.0378032,32.5409982 L39.8256064,35.6259868 L39.8461558,35.6259868 L39.8256064,34.8616628 L39.8256064,32.5409982 L40.298244,32.5409982 L40.298244,36.5066208 L39.8050569,36.5066208 L37.9350559,33.2720907 L37.9145064,33.2720907 L37.9350559,34.0364146 L37.9350559,36.5066208 L37.4624183,36.5066208 Z M42.8463773,36.5066208 L42.3737396,36.5066208 L42.3737396,32.5409982 L43.6272568,32.5409982 C43.9389252,32.5409982 44.2086342,32.6526918 44.4363919,32.8760823 C44.6641496,33.0994727 44.7780267,33.3810143 44.7780267,33.7207156 C44.7780267,34.0604168 44.6641496,34.3419584 44.4363919,34.5653489 C44.2086342,34.7887393 43.9389252,34.9004329 43.6272568,34.9004329 L42.8463773,34.9004329 L42.8463773,36.5066208 Z M42.8463773,34.4130379 L43.6375316,34.4130379 C43.8361773,34.4130379 43.9954341,34.3410371 44.1153065,34.1970334 C44.235179,34.0530296 44.2951143,33.8942586 44.2951143,33.7207156 C44.2951143,33.5471725 44.235179,33.3884015 44.1153065,33.2443978 C43.9954341,33.100394 43.8361773,33.0283932 43.6375316,33.0283932 L42.8463773,33.0283932 L42.8463773,34.4130379 Z M44.2437407,36.5066208 L45.6308294,32.5409982 L46.1651154,32.5409982 L47.552204,36.5066208 L47.0281928,36.5066208 L46.6737146,35.4321365 L45.1273675,35.4321365 L44.767752,36.5066208 L44.2437407,36.5066208 Z M45.2866259,34.9558187 L46.5093189,34.9558187 L45.9082471,33.1668577 L45.8876976,33.1668577 L45.2866259,34.9558187 Z M47.9837427,36.5066208 L47.9837427,32.5409982 L49.2372599,32.5409982 C49.5489283,32.5409982 49.8186373,32.6526918 50.046395,32.8760823 C50.2741527,33.0994727 50.3880298,33.3810143 50.3880298,33.7207156 C50.3880298,33.9976459 50.3041203,34.242264 50.1362989,34.4545773 C49.9684774,34.6668905 49.75956,34.8007382 49.5095403,34.8561243 L49.4992656,34.87274 L50.531876,36.4844665 L50.531876,36.5066208 L49.9719032,36.5066208 L48.9803917,34.9004329 L48.4563804,34.9004329 L48.4563804,36.5066208 L47.9837427,36.5066208 Z M48.4563804,34.4241151 L49.2167105,34.4241151 C49.4050815,34.4241151 49.5669069,34.3576528 49.7021915,34.2247263 C49.8374761,34.0917997 49.9051174,33.9237978 49.9051174,33.7207156 C49.9051174,33.5471725 49.8451821,33.3884015 49.7253096,33.2443978 C49.6054372,33.100394 49.4461804,33.0283932 49.2475347,33.0283932 L48.4563804,33.0283932 L48.4563804,34.4241151 Z M52.2066572,36.5066208 L51.7340195,36.5066208 L51.7340195,33.0283932 L50.7065465,33.0283932 L50.7065465,32.5409982 L53.2341303,32.5409982 L53.2341303,33.0283932 L52.2066572,33.0283932 L52.2066572,36.5066208 Z M53.7273174,36.5066208 L53.7273174,32.5409982 L54.3027023,32.5409982 L56.0905055,35.6259868 L56.1110549,35.6259868 L56.0905055,34.8616628 L56.0905055,32.5409982 L56.5631431,32.5409982 L56.5631431,36.5066208 L56.069956,36.5066208 L54.199955,33.2720907 L54.1794055,33.2720907 L54.199955,34.0364146 L54.199955,36.5066208 L53.7273174,36.5066208 Z M59.4503425,33.0283932 L57.7755613,33.0283932 L57.7755613,34.2856506 L59.2859468,34.2856506 L59.2859468,34.7619684 L57.7755613,34.7619684 L57.7755613,36.0192259 L59.4503425,36.0192259 L59.4503425,36.5066208 L57.3029237,36.5066208 L57.3029237,32.5409982 L59.4503425,32.5409982 L59.4503425,33.0283932 Z M60.0873758,36.5066208 L60.0873758,32.5409982 L61.340893,32.5409982 C61.6525614,32.5409982 61.9222704,32.6526918 62.150028,32.8760823 C62.3777857,33.0994727 62.4916629,33.3810143 62.4916629,33.7207156 C62.4916629,33.9976459 62.4077534,34.242264 62.2399319,34.4545773 C62.0721105,34.6668905 61.8631931,34.8007382 61.6131734,34.8561243 L61.6028986,34.87274 L62.6355091,36.4844665 L62.6355091,36.5066208 L62.0755362,36.5066208 L61.0840247,34.9004329 L60.5600134,34.9004329 L60.5600134,36.5066208 L60.0873758,36.5066208 Z M60.5600134,34.4241151 L61.3203435,34.4241151 C61.5087145,34.4241151 61.6705399,34.3576528 61.8058246,34.2247263 C61.9411092,34.0917997 62.0087505,33.9237978 62.0087505,33.7207156 C62.0087505,33.5471725 61.9488152,33.3884015 61.8289427,33.2443978 C61.7090702,33.100394 61.5498135,33.0283932 61.3511677,33.0283932 L60.5600134,33.0283932 L60.5600134,34.4241151 Z M64.0945209,36.5952381 C63.8273765,36.5952381 63.5662297,36.5010832 63.3110726,36.3127706 C63.0559156,36.1244579 62.8889528,35.860455 62.8101795,35.5207538 L63.2417182,35.3324421 C63.2930921,35.5502939 63.3984071,35.7339883 63.5576662,35.8835307 C63.7169253,36.0330731 63.8958751,36.1078431 64.0945209,36.1078431 C64.3000165,36.1078431 64.4755414,36.0496886 64.6211008,35.9333779 C64.7666603,35.8170672 64.8394389,35.6592192 64.8394389,35.4598294 C64.8394389,35.2382851 64.7666603,35.067514 64.6211008,34.9475108 C64.4755414,34.8275077 64.2452185,34.7158141 63.9301252,34.6124268 C63.6047571,34.5016547 63.358166,34.3585761 63.1903446,34.1831869 C63.0225231,34.0077977 62.9386136,33.7834875 62.9386136,33.5102496 C62.9386136,33.2259344 63.0430724,32.978547 63.2519929,32.76808 C63.4609135,32.5576129 63.7331912,32.452381 64.0688341,32.452381 C64.3805025,32.452381 64.6339433,32.5363819 64.8291641,32.7043863 C65.024385,32.8723907 65.1511054,33.0560851 65.2093292,33.2554749 L64.7777905,33.4493252 C64.7469661,33.3237834 64.6707627,33.2074744 64.5491777,33.1003947 C64.4275928,32.993315 64.2709047,32.9397759 64.0791088,32.9397759 C63.8975876,32.9397759 63.742612,32.9942381 63.6141772,33.103164 C63.4857424,33.2120899 63.421526,33.3477838 63.421526,33.5102496 C63.421526,33.6579457 63.4806051,33.7825625 63.5987651,33.8841036 C63.7169251,33.9856448 63.8907376,34.0770304 64.1202077,34.1582633 C64.3017289,34.2210342 64.4532796,34.2819579 64.5748646,34.3410364 C64.6964495,34.4001149 64.819745,34.4785773 64.9447549,34.576426 C65.0697647,34.6742747 65.1639488,34.7961223 65.22731,34.9419722 C65.2906711,35.0878222 65.3223512,35.2567472 65.3223512,35.4487522 C65.3223512,35.6407573 65.2855338,35.8124515 65.2118979,35.9638401 C65.1382619,36.1152287 65.040653,36.23523 64.919068,36.3238477 C64.7974831,36.4124654 64.6664816,36.4798508 64.5260596,36.5260059 C64.3856376,36.5721609 64.2417928,36.5952381 64.0945209,36.5952381 Z M65.8977362,36.5066208 L65.8977362,32.5409982 L66.3703738,32.5409982 L66.3703738,34.241342 L68.2095506,34.241342 L68.2095506,32.5409982 L68.6821883,32.5409982 L68.6821883,36.5066208 L68.2095506,36.5066208 L68.2095506,34.7176598 L66.3703738,34.7176598 L66.3703738,36.5066208 L65.8977362,36.5066208 Z M69.4219689,36.5066208 L69.4219689,32.5409982 L69.8946065,32.5409982 L69.8946065,36.5066208 L69.4219689,36.5066208 Z M71.1070248,36.5066208 L70.6343871,36.5066208 L70.6343871,32.5409982 L71.8879043,32.5409982 C72.1995727,32.5409982 72.4692817,32.6526918 72.6970394,32.8760823 C72.924797,33.0994727 73.0386742,33.3810143 73.0386742,33.7207156 C73.0386742,34.0604168 72.924797,34.3419584 72.6970394,34.5653489 C72.4692817,34.7887393 72.1995727,34.9004329 71.8879043,34.9004329 L71.1070248,34.9004329 L71.1070248,36.5066208 Z M71.1070248,34.4130379 L71.898179,34.4130379 C72.0968248,34.4130379 72.2560816,34.3410371 72.375954,34.1970334 C72.4958265,34.0530296 72.5557618,33.8942586 72.5557618,33.7207156 C72.5557618,33.5471725 72.4958265,33.3884015 72.375954,33.2443978 C72.2560816,33.100394 72.0968248,33.0283932 71.898179,33.0283932 L71.1070248,33.0283932 L71.1070248,34.4130379 Z M78.7411499,32.5409982 L77.759913,36.5066208 L77.2770007,36.5066208 L76.4858464,33.8924115 L76.4652969,33.8924115 L75.6741427,36.5066208 L75.1912303,36.5066208 L74.1688946,32.5409982 L74.6620817,32.5409982 L75.4378239,35.6592182 L75.4583733,35.6592182 L76.254665,33.0727018 L76.6964784,33.0727018 L77.49277,35.6592182 L77.5133195,35.6592182 L78.2479628,32.5409982 L78.7411499,32.5409982 Z M79.193238,36.5066208 L79.193238,32.5409982 L79.6658756,32.5409982 L79.6658756,36.5066208 L79.193238,36.5066208 Z M81.6591734,36.5066208 L81.1865358,36.5066208 L81.1865358,33.0283932 L80.1590627,33.0283932 L80.1590627,32.5409982 L82.6866465,32.5409982 L82.6866465,33.0283932 L81.6591734,33.0283932 L81.6591734,36.5066208 Z M83.1798336,36.5066208 L83.1798336,32.5409982 L83.6524712,32.5409982 L83.6524712,34.241342 L85.4916481,34.241342 L85.4916481,32.5409982 L85.9642857,32.5409982 L85.9642857,36.5066208 L85.4916481,36.5066208 L85.4916481,34.7176598 L83.6524712,34.7176598 L83.6524712,36.5066208 L83.1798336,36.5066208 Z" id="INPARTNERSHIPWITH" fill="#000000" fill-rule="nonzero"></path>
            </g>
        </g>
    </g>
</svg>