<svg xmlns="http://www.w3.org/2000/svg" width="50.49" height="71.532" viewBox="0 0 50.49 71.532">
  <g id="Grupo_1" data-name="Grupo 1" transform="translate(-553 -389.214)">
    <g id="Page-1" transform="translate(482 383.213)">
      <g id="Web-Home" transform="translate(-731.001 -438.601)">
        <g id="sww-logo-white" transform="translate(802.001 444.601)">
          <path id="Fill-61" d="M33.831,20.859c0-.486-3.855-1.023-8.61-1.023s-8.609.538-8.609,1.023,3.855,1.023,8.609,1.023,8.61-.538,8.61-1.023" fill="#fff" fill-rule="evenodd"/>
          <path id="Fill-62" d="M21.478,9.831a4.915,4.915,0,1,0-4.926-4.915,4.92,4.92,0,0,0,4.926,4.915" fill="#fff" fill-rule="evenodd"/>
          <path id="Fill-63" d="M29.156,15.26a3.512,3.512,0,1,0-3.519-3.512,3.516,3.516,0,0,0,3.519,3.512" fill="#fff" fill-rule="evenodd"/>
          <path id="Fill-64" d="M25.246,69.288c-12.472,0-20.261-.554-22.7-1.021L17.735,31.26a1.12,1.12,0,0,0,.009-.828l-4.2-10.877a50.2,50.2,0,0,1,23.378,0l-4.1,10.821a1.118,1.118,0,0,0,.01.82L47.95,68.266c-2.438.467-10.228,1.022-22.7,1.022m25.161-.949L35.08,30.759l4.387-11.565a1.121,1.121,0,0,0-.714-1.467A49.184,49.184,0,0,0,25.23,15.932c-.379,0-.751.005-1.118.013a2.786,2.786,0,1,0-4.992.341,43.518,43.518,0,0,0-7.407,1.44A1.122,1.122,0,0,0,11,19.2l4.484,11.622L.086,68.336A1.407,1.407,0,0,0,0,68.88c0,1.277,1.581,1.514,2.851,1.7,1.246.187,3.017.354,5.263.5,4.578.291,10.661.451,17.129.451s12.551-.16,17.13-.451c2.246-.142,4.017-.309,5.263-.5,1.271-.191,2.852-.428,2.852-1.7a1.994,1.994,0,0,0-.083-.541" fill="#fff" fill-rule="evenodd"/>
          <path id="Fill-65" d="M30.524,49.067a5.76,5.76,0,0,0-1.651,1.7,6.316,6.316,0,0,0-.882,2.109,6.213,6.213,0,0,0-.139,1.307v2.025a6.78,6.78,0,0,0-3.024-.737c-.109,0-.408,0-.408.008V49.444a5.815,5.815,0,0,0-1.906-4.492v-3.09a4.483,4.483,0,0,1,8.96-.008v6.71a4.9,4.9,0,0,0-.951.5M44.593,66.4,40.435,56.218V54.185a6.262,6.262,0,0,0-1.794-4.468,6.181,6.181,0,0,0-1.011-.841S30.5,31.021,30.5,31.021c-.018-.047-.051-.132-.116-.132-1.435.138-3.215.226-5.143.226s-3.715-.089-5.152-.227c-.066,0-.105.081-.126.126,0,0-5.327,13.263-5.331,13.267a6.256,6.256,0,0,0-2.6,5.165V51.14L5.881,66.4a49.176,49.176,0,0,0,8.246.578V49.447a4.1,4.1,0,1,1,8.2,0v6.481a6.247,6.247,0,0,0-3.622,5.73v5.569h2.1V61.654a4,4,0,0,1,8.007.007v5.562h2.287V61.661a6.145,6.145,0,0,0-1.02-3.378c0-1.364-.006-4.248,0-4.226a4.177,4.177,0,0,1,8.33-.038c0-.034,0,12.675,0,12.958a47,47,0,0,0,6.2-.577" fill="#fff" fill-rule="evenodd"/>
          <path id="Fill-66" d="M16.438,51.582a1.1,1.1,0,1,0-1.107-1.1,1.1,1.1,0,0,0,1.107,1.1" fill="#fff" fill-rule="evenodd"/>
          <path id="Fill-67" d="M21.087,50.476a1.1,1.1,0,1,0-1.1,1.1,1.1,1.1,0,0,0,1.1-1.1" fill="#fff" fill-rule="evenodd"/>
          <path id="Fill-68" d="M25.313,43.279a1.1,1.1,0,1,0-1.107-1.1,1.1,1.1,0,0,0,1.107,1.1" fill="#fff" fill-rule="evenodd"/>
          <path id="Fill-69" d="M28.862,43.278a1.1,1.1,0,1,0-1.107-1.1,1.1,1.1,0,0,0,1.107,1.1" fill="#fff" fill-rule="evenodd"/>
          <path id="Fill-70" d="M32.508,56.336a1.1,1.1,0,1,0-1.107-1.1,1.1,1.1,0,0,0,1.107,1.1" fill="#fff" fill-rule="evenodd"/>
          <path id="Fill-71" d="M37.155,55.23a1.1,1.1,0,1,0-1.1,1.1,1.1,1.1,0,0,0,1.1-1.1" fill="#fff" fill-rule="evenodd"/>
          <path id="Fill-72" d="M23.2,62.457a1.037,1.037,0,1,0-1.043-1.032A1.038,1.038,0,0,0,23.2,62.457" fill="#fff" fill-rule="evenodd"/>
          <path id="Fill-73" d="M27.581,61.415a1.039,1.039,0,1,0-1.035,1.042,1.037,1.037,0,0,0,1.035-1.042" fill="#fff" fill-rule="evenodd"/>
          <path id="Fill-74" d="M27.108,46.463a3.744,3.744,0,0,1-1.976-.559.619.619,0,1,1,.655-1.049,2.519,2.519,0,0,0,2.642,0,.619.619,0,1,1,.655,1.049,3.742,3.742,0,0,1-1.976.56" fill="#fff" fill-rule="evenodd"/>
          <path id="Fill-75" d="M18.246,54.868a3.744,3.744,0,0,1-1.976-.559.618.618,0,1,1,.655-1.049,2.521,2.521,0,0,0,2.643,0,.618.618,0,1,1,.655,1.049,3.747,3.747,0,0,1-1.976.559" fill="#fff" fill-rule="evenodd"/>
          <path id="Fill-76" d="M24.878,65.582a3.745,3.745,0,0,1-1.976-.559.619.619,0,1,1,.655-1.049,2.519,2.519,0,0,0,2.642,0,.618.618,0,1,1,.655,1.049,3.742,3.742,0,0,1-1.976.56" fill="#fff" fill-rule="evenodd"/>
          <path id="Fill-77" d="M34.292,59.648a3.744,3.744,0,0,1-1.976-.559.619.619,0,1,1,.655-1.049,2.52,2.52,0,0,0,2.642,0,.618.618,0,1,1,.655,1.049,3.744,3.744,0,0,1-1.976.559" fill="#fff" fill-rule="evenodd"/>
        </g>
      </g>
    </g>
  </g>
</svg>
