<?xml version="1.0" encoding="UTF-8"?>
<svg width="450px" height="77px" viewBox="0 0 450 77" version="1.1" xmlns="http://www.w3.org/2000/svg" xmlns:xlink="http://www.w3.org/1999/xlink">
    <!-- Generator: sketchtool 57 (101010) - https://sketch.com -->
    <title>1648AB64-2D6B-4BEA-A60C-2D9A2BAE3AD0</title>
    <desc>Created with sketchtool.</desc>
    <g id="Page-1" stroke="none" stroke-width="1" fill="none" fill-rule="evenodd">
        <g id="Web-Home" transform="translate(-735.000000, -441.000000)" fill="#FFFFFF">
            <g id="sww-logo-white" transform="translate(735.000000, 441.000000)">
                <path d="M65.1076971,9.44600555 L61.8780664,17.9651679 L60.7907033,17.9651679 L58.0966395,10.9846375 L55.4025757,17.9651679 L54.3152125,17.9651679 L51.1018111,9.44600555 L52.2054035,9.44600555 L54.8832381,16.6856739 L57.6259898,9.44600555 L58.6159771,9.44600555 L61.3424995,16.6856739 L64.0527926,9.44600555 L65.1076971,9.44600555 Z M69.8391307,18.0461485 C69.0168421,18.0461485 68.2757114,17.8598949 67.6157166,17.4873822 C66.9557218,17.1148694 66.4363894,16.5992979 66.0577038,15.9406521 C65.6790182,15.2820064 65.4896783,14.536992 65.4896783,13.7055867 C65.4896783,12.8741814 65.6790182,12.1291671 66.0577038,11.4705213 C66.4363894,10.8118756 66.9557218,10.2990034 67.6157166,9.93188933 C68.2757114,9.5647753 69.0168421,9.38122104 69.8391307,9.38122104 C70.6614194,9.38122104 71.40255,9.5647753 72.0625448,9.93188933 C72.7225397,10.2990034 73.2391672,10.8118756 73.612443,11.4705213 C73.9857188,12.1291671 74.1723538,12.8741814 74.1723538,13.7055867 C74.1723538,14.536992 73.9857188,15.2820064 73.612443,15.9406521 C73.2391672,16.5992979 72.7225397,17.1148694 72.0625448,17.4873822 C71.40255,17.8598949 70.6614194,18.0461485 69.8391307,18.0461485 Z M69.8391307,17.0257926 C70.4450276,17.0257926 70.9887037,16.8881269 71.4701754,16.6127913 C71.951647,16.3374558 72.327622,15.9460534 72.5981117,15.4385722 C72.8686014,14.9310911 73.0038442,14.353435 73.0038442,13.7055867 C73.0038442,13.0577384 72.8686014,12.4800824 72.5981117,11.9726012 C72.327622,11.4651201 71.951647,11.0737176 71.4701754,10.7983821 C70.9887037,10.5230466 70.4450276,10.3853809 69.8391307,10.3853809 C69.2332338,10.3853809 68.6895577,10.5230466 68.2080861,10.7983821 C67.7266144,11.0737176 67.3479345,11.4651201 67.072035,11.9726012 C66.7961356,12.4800824 66.6581879,13.0577384 66.6581879,13.7055867 C66.6581879,14.353435 66.7961356,14.9310911 67.072035,15.4385722 C67.3479345,15.9460534 67.7266144,16.3374558 68.2080861,16.6127913 C68.6895577,16.8881269 69.2332338,17.0257926 69.8391307,17.0257926 Z M87.1645012,9.38122104 C88.2356403,9.38122104 89.0768507,9.68894436 89.6881574,10.3044002 C90.299464,10.9198561 90.6051128,11.8268301 90.6051128,13.0253494 L90.6051128,17.9651679 L89.4528325,17.9651679 L89.4528325,13.1387223 C89.4528325,12.2533296 89.2391489,11.5784978 88.8117751,11.1142065 C88.3844014,10.6499153 87.7812185,10.4177731 87.0022082,10.4177731 C86.115002,10.4177731 85.4171491,10.6904052 84.9086285,11.2356775 C84.4001079,11.7809498 84.1458514,12.5340621 84.1458514,13.4950371 L84.1458514,17.9651679 L82.9935711,17.9651679 L82.9935711,13.1387223 C82.9935711,12.2533296 82.7798874,11.5784978 82.3525137,11.1142065 C81.92514,10.6499153 81.3165473,10.4177731 80.5267175,10.4177731 C79.6503309,10.4177731 78.9551828,10.6904052 78.4412524,11.2356775 C77.927322,11.7809498 77.6703606,12.5340621 77.6703606,13.4950371 L77.6703606,17.9651679 L76.5180803,17.9651679 L76.5180803,9.44600555 L77.6216727,9.44600555 L77.6216727,11.0008337 C77.9246212,10.482555 78.3465788,10.0830546 78.8875581,9.80232032 C79.4285375,9.52158606 80.0506545,9.38122104 80.7539277,9.38122104 C81.4680204,9.38122104 82.0874325,9.53238337 82.6121825,9.83471257 C83.1369325,10.1370418 83.5291367,10.5851301 83.7888068,11.178991 C84.1025748,10.6175225 84.5542858,10.1775322 85.1439533,9.85900676 C85.7336208,9.54048136 86.4071301,9.38122104 87.1645012,9.38122104 Z M101.227782,14.0619015 L94.0868903,14.0619015 C94.1518078,14.9472941 94.4926197,15.6626159 95.1093362,16.2078882 C95.7260527,16.7531605 96.5050513,17.0257926 97.4463554,17.0257926 C97.9765152,17.0257926 98.4633893,16.9313161 98.9069924,16.7423604 C99.3505955,16.5534046 99.7346851,16.2753739 100.059273,15.9082599 L100.708445,16.6532817 C100.329759,17.1067755 99.8564093,17.4522894 99.288381,17.6898337 C98.7203526,17.9273781 98.0955308,18.0461485 97.4138968,18.0461485 C96.5375102,18.0461485 95.7612165,17.8598949 95.0849923,17.4873822 C94.408768,17.1148694 93.8813211,16.5992979 93.5026355,15.9406521 C93.1239499,15.2820064 92.93461,14.536992 92.93461,13.7055867 C92.93461,12.8741814 93.1158354,12.1291671 93.4782916,11.4705213 C93.8407477,10.8118756 94.3384413,10.2990034 94.9713872,9.93188933 C95.604333,9.5647753 96.3157102,9.38122104 97.1055401,9.38122104 C97.89537,9.38122104 98.6040424,9.5647753 99.2315784,9.93188933 C99.8591145,10.2990034 100.351398,10.8091762 100.708445,11.4624232 C101.065491,12.1156703 101.244012,12.8633839 101.244012,13.7055867 L101.227782,14.0619015 Z M97.1055401,10.3691847 C96.2832515,10.3691847 95.5935131,10.6310195 95.0363044,11.1546969 C94.4790956,11.6783742 94.1626274,12.361304 94.0868903,13.2035068 L100.140419,13.2035068 C100.064682,12.361304 99.7482139,11.6783742 99.1910052,11.1546969 C98.6337964,10.6310195 97.9386484,10.3691847 97.1055401,10.3691847 Z M107.939191,9.38122104 C109.01033,9.38122104 109.862359,9.69164369 110.495305,10.3124983 C111.128251,10.9333529 111.444719,11.8376276 111.444719,13.0253494 L111.444719,17.9651679 L110.292439,17.9651679 L110.292439,13.1387223 C110.292439,12.2533296 110.070641,11.5784978 109.627038,11.1142065 C109.183435,10.6499153 108.550498,10.4177731 107.72821,10.4177731 C106.808545,10.4177731 106.080938,10.6904052 105.545369,11.2356775 C105.009799,11.7809498 104.742018,12.5340621 104.742018,13.4950371 L104.742018,17.9651679 L103.589738,17.9651679 L103.589738,9.44600555 L104.693331,9.44600555 L104.693331,11.0170298 C105.007099,10.4987512 105.44258,10.0965514 105.999789,9.81041838 C106.556998,9.52428539 107.203459,9.38122104 107.939191,9.38122104 Z" id="women" fill-rule="nonzero"></path>
                <polygon id="Fill-1" points="298.121278 27.3379083 298.121278 28.0324231 297.152743 28.0324231 297.152743 30.5636636 296.309374 30.5636636 296.309374 28.0324231 295.349865 28.0324231 295.349865 27.3379083"></polygon>
                <polygon id="Fill-2" points="299.293059 27.3379083 300.15087 29.2202745 301.00838 27.3379083 301.93058 27.3379083 301.93058 30.5636636 301.183794 30.5636636 301.17928 28.520355 300.42768 30.2414784 299.874059 30.2414784 299.12276 28.520355 299.12276 30.5636636 298.370859 30.5636636 298.370859 27.3379083"></polygon>
                <path d="M90.3992171,43.9750948 L90.3992171,42.4752673 L87.009193,42.4752673 C85.4103124,42.4752673 84.6108721,43.049976 84.6108721,44.2627495 C84.6108721,45.4433945 85.4744,46.2093725 86.9454063,46.2093725 C88.6402679,46.2093725 90.0474874,45.2836531 90.3992171,43.9750948 M95.995901,38.5814206 L95.995901,49.8155646 L90.3992171,49.8155646 L90.3992171,47.8689415 C89.2799405,49.3048125 87.5212922,50.0707905 85.186758,50.0707905 C81.4768977,50.0707905 79.2702378,47.8368131 79.2702378,44.6777168 C79.2702378,41.390407 81.604772,39.50714 85.8902173,39.4431834 L90.3992171,39.4431834 L90.3992171,39.2522144 C90.3992171,37.6244736 89.2799405,36.6666257 87.1054749,36.6666257 C85.6660611,36.6666257 83.7792376,37.1455496 81.9243074,38.0391406 L80.3573202,34.2095508 C83.0757783,32.9964771 85.570381,32.3262838 88.4164126,32.3262838 C93.1814619,32.3262838 95.9637067,34.6239176 95.995901,38.5814206" id="Fill-3"></path>
                <path d="M120.578374,49.0966382 C119.330923,49.8307881 117.604168,50.2457554 115.909306,50.2457554 C112.551476,50.2778838 110.120961,48.298832 110.120961,44.7244682 L110.120961,37.3202142 L110.120961,33.5539805 L110.120961,28.8112825 L115.781733,28.8112825 L115.781733,33.5539805 L120.258839,33.5539805 L120.258839,37.6324907 L115.781733,37.6324907 L115.781733,43.8308772 C115.781733,45.1076073 116.357017,45.6820157 117.34872,45.6498873 C117.924305,45.6498873 118.659657,45.4264896 119.491292,45.0754789 L120.578374,49.0966382 Z" id="Fill-5"></path>
                <path d="M108.759987,32.5286329 L108.759987,37.7304373 C105.594119,37.4115551 103.48344,38.8155979 103.195798,41.2093167 L103.195798,50.0179137 L97.5031333,50.0179137 L97.5031333,32.7520307 L103.195798,32.7520307 L103.195798,35.6243732 C104.378861,33.6456216 106.329472,32.5286329 108.759987,32.5286329" id="Fill-7"></path>
                <path d="M138.977958,33.1124697 L138.977958,50.3783527 L133.285594,50.3783527 L133.285594,47.5696666 C132.101929,49.5805466 130.215406,50.6017505 127.752998,50.6338789 C124.011545,50.6338789 121.58103,48.0485905 121.58103,44.0274312 L121.58103,33.1124697 L127.273394,33.1124697 L127.273394,42.3996904 C127.273394,44.3466137 128.360476,45.527559 130.055638,45.527559 C132.070336,45.4954306 133.285594,43.8998182 133.285594,41.6337124 L133.285594,33.1124697 L138.977958,33.1124697 Z" id="Fill-9"></path>
                <path d="M68.3793756,28.8113726 L74.0395453,28.8113726 L74.0395453,33.5540706 L78.5169526,33.5540706 L78.5169526,37.6674116 L74.0395453,37.6674116 L74.0395453,43.8309673 C74.0395453,45.1073971 74.6154312,45.6821058 75.6068335,45.6499774 C76.1827193,45.6499774 76.918072,45.4265796 77.7497066,45.0755689 L78.8367889,49.0967283 C77.5893371,49.8308781 75.8625822,50.2458454 74.1677206,50.2458454 C70.8098908,50.2776736 68.3793756,48.2986218 68.3793756,44.7245582 L68.3793756,28.8113726 Z" id="Fill-11"></path>
                <path d="M153.683507,41.7638776 C153.683507,39.2107176 152.180608,37.4553639 149.941453,37.4553639 C147.767288,37.4553639 146.264087,39.2107176 146.264087,41.7638776 C146.264087,44.3173378 147.767288,46.0405631 149.941453,46.0405631 C152.180608,46.0405631 153.683507,44.3173378 153.683507,41.7638776 M159.407765,41.8917908 C159.407765,47.1575518 156.27379,50.6364312 151.477148,50.6364312 C149.270188,50.6364312 147.479345,49.7746684 146.264087,48.2108842 L146.264087,56.636342 L140.571723,56.636342 L140.571723,33.1789786 L146.264087,33.1789786 L146.264087,35.4132563 C147.479345,33.8491718 149.2061,32.987409 151.348973,32.987409 C156.177809,32.987409 159.407765,36.5299447 159.407765,41.8917908" id="Fill-13"></path>
                <path d="M51.8394763,47.440192 L54.1367012,43.7271053 C56.1426736,45.0509772 58.3424131,45.7289773 60.1543174,45.7289773 C61.2221433,45.7289773 61.7071632,45.4061916 61.7071632,44.7927486 L61.7071632,44.7278912 C61.7071632,44.0498911 60.7365217,43.7592338 58.8924233,43.2427766 C55.4307896,42.3386764 52.680739,41.1766478 52.680739,37.6572326 L52.680739,37.5923751 C52.680739,33.8795887 55.6570519,31.8131596 59.7014917,31.8131596 C62.2571733,31.8131596 64.9100394,32.5560172 66.9160117,33.84716 L64.8131558,37.7217897 C63.0015524,36.7207036 61.0277743,36.1072606 59.6365015,36.1072606 C58.6983551,36.1072606 58.2133353,36.462475 58.2133353,36.9468037 L58.2133353,37.0113609 C58.2133353,37.689361 59.216171,38.012447 61.0602695,38.5613328 C64.5219031,39.52969 67.2719537,40.7244475 67.2719537,44.1147485 L67.2719537,44.1793056 C67.2719537,48.0212063 64.3925244,50.0230783 60.1218222,50.0230783 C57.1777035,50.0230783 54.2657791,49.1835351 51.8394763,47.440192" id="Fill-15"></path>
                <path d="M195.7557,39.7341409 C195.7557,37.7310679 194.460409,36.3738666 192.517922,36.3738666 C190.639824,36.3738666 189.409823,37.7310679 189.021386,39.7341409 L195.7557,39.7341409 Z M201.324402,42.803758 L189.150765,42.803758 C189.701076,44.7744024 191.157941,45.8730749 193.133223,45.8730749 C194.622282,45.8730749 196.079147,45.2590313 197.24506,44.0958017 L200.255975,47.1011619 C198.475061,49.1042349 195.852283,50.2029074 192.615107,50.2029074 C186.884531,50.2029074 183.355199,46.6810901 183.355199,41.3498711 C183.355199,35.9216663 187.013609,32.3349915 192.485427,32.3349915 C198.604741,32.3349915 201.71284,36.4384237 201.324402,42.803758 L201.324402,42.803758 Z" id="Fill-17"></path>
                <path d="M214.597759,39.7317989 C214.597759,37.7284256 213.302467,36.3715245 211.359981,36.3715245 C209.481883,36.3715245 208.251581,37.7284256 207.863445,39.7317989 L214.597759,39.7317989 Z M220.166461,42.801416 L207.992523,42.801416 C208.543135,44.7720603 210,45.8707328 211.975282,45.8707328 C213.464341,45.8707328 214.921206,45.2566893 216.086818,44.0934596 L219.098033,47.0985196 C217.31712,49.1018929 214.694342,50.2002651 211.457165,50.2002651 C205.72659,50.2002651 202.196957,46.678748 202.196957,41.347529 C202.196957,35.919024 205.855667,32.3323492 211.327486,32.3323492 C217.4468,32.3323492 220.554898,36.4357814 220.166461,42.801416 L220.166461,42.801416 Z" id="Fill-19"></path>
                <polygon id="Fill-21" points="238.213382 33.2690583 231.249797 33.2690583 226.977891 38.1048388 226.977891 27.3655328 221.215121 27.3655328 221.215121 50.2082522 226.977891 50.2082522 226.977891 45.458648 226.977891 43.9675282 231.454998 49.9713425 237.892643 49.9713425 231.454998 41.0960865"></polygon>
                <path d="M248.625212,39.9338177 C248.625212,37.9304444 247.329619,36.5732431 245.387133,36.5732431 C243.509336,36.5732431 242.279034,37.9304444 241.890597,39.9338177 L248.625212,39.9338177 Z M254.193914,43.0031345 L242.019976,43.0031345 C242.570287,44.9740791 244.027453,46.0724513 246.002434,46.0724513 C247.491794,46.0724513 248.948659,45.4584078 250.114271,44.2951782 L253.125185,47.3005384 C251.344272,49.3036114 248.721795,50.4022839 245.484618,50.4022839 C239.754042,50.4022839 236.22441,46.8807668 236.22441,41.5492476 C236.22441,36.1210428 239.882819,32.534368 245.354939,32.534368 C251.473952,32.534368 254.582351,36.6378002 254.193914,43.0031345 L254.193914,43.0031345 Z" id="Fill-23"></path>
                <path d="M273.250411,39.3898862 L273.250411,50.4075386 L267.519534,50.4075386 L267.519534,41.0377448 C267.519534,39.0668002 266.353922,37.8393137 264.541115,37.8393137 C262.598628,37.8711419 261.335531,39.1959145 261.109268,41.1671594 L261.109268,50.4075386 L255.346197,50.4075386 L255.346197,32.9278663 L261.109268,32.9278663 L261.109268,35.7713833 C262.339269,33.7677097 264.346746,32.7017662 266.904233,32.7017662 C270.724817,32.7017662 273.250411,35.286454 273.250411,39.3898862" id="Fill-25"></path>
                <path d="M287.776725,41.7486241 C287.776725,39.1315075 286.25487,37.3866631 284.021131,37.3866631 C281.754295,37.3866631 280.232741,39.1639362 280.232741,41.7486241 C280.232741,44.3333119 281.754295,46.1105851 284.021131,46.1105851 C286.25487,46.1105851 287.776725,44.3333119 287.776725,41.7486241 L287.776725,41.7486241 Z M293.539796,27.3655928 L293.539796,50.4076887 L287.776725,50.4076887 L287.776725,48.1460868 C286.578919,49.7615167 284.798005,50.6337888 282.59646,50.6337888 C277.675254,50.6337888 274.437175,47.0152859 274.437175,41.5870811 C274.437175,36.2561624 277.642458,32.7340448 282.467082,32.7340448 C284.733617,32.7340448 286.546123,33.6387456 287.776725,35.2223473 L287.776725,27.3655928 L293.539796,27.3655928 Z" id="Fill-27"></path>
                <polygon id="Fill-29" points="158.590151 33.1790086 164.576776 33.1790086 166.680535 41.2186249 168.659428 33.1790086 174.137565 33.1790086 176.148351 41.2831821 178.311384 33.1790086 184.20263 33.1790086 179.028082 50.0332272 173.722049 50.0332272 171.382099 40.9603964 168.977459 50.0332272 163.703921 50.0332272"></polygon>
                <polygon id="Fill-31" points="376.076727 44.0094152 380.97296 28.3232305 370.752942 20.4805885 344.302811 46.3502873 372.725216 46.3502873 376.054462 44.0808785"></polygon>
                <polygon id="Fill-33" points="408.8607 20.4813692 398.642487 28.3231104 403.553463 44.0768549 406.889028 46.3501672 435.31053 46.3501672"></polygon>
                <polygon id="Fill-35" points="404.094778 11.5701414 393.306997 11.5440183 389.807152 1.21157243 386.304598 11.5440183 375.519526 11.5701414 384.143372 18.1879992 380.975999 28.3336797 389.807152 22.2965359 398.634995 28.3336797 395.472437 18.1879992"></polygon>
                <polygon id="Fill-37" points="389.843799 34.7313827 389.807092 34.7064607 372.725186 46.3501672 406.888998 46.3501672"></polygon>
                <path d="M333.715117,59.1320611 L333.715117,57.4848031 L336.500972,57.4848031 L336.500972,53.9149432 L338.564413,53.022253 L338.564413,57.4848031 L342.072683,57.4848031 L342.072683,59.1320611 L338.564413,59.1320611 L338.564413,70.2527047 C338.564413,72.55214 338.805117,73.1025272 340.45605,73.1025272 C341.143563,73.1025272 341.625574,73.0679966 342.072683,72.9992358 L342.072683,74.7840156 C341.45347,74.8530767 340.765957,74.8876073 340.112143,74.8876073 C337.326288,74.8876073 336.500972,73.651413 336.500972,71.5234294 L336.500972,59.1320611 L333.715117,59.1320611 Z" id="Fill-39"></path>
                <path d="M354.283449,64.9335864 C354.283449,61.0892836 353.664838,58.7883469 350.362972,58.7883469 C347.061407,58.7883469 346.441893,61.0892836 346.441893,64.9335864 L354.283449,64.9335864 Z M346.441893,66.5805442 L346.441893,67.9188288 C346.441893,70.3215556 347.095106,73.5136811 350.362972,73.5136811 C352.942724,73.5136811 354.214848,71.8667233 354.180548,69.5324571 L356.346889,69.5324571 C356.106787,73.7205643 353.837243,75.16184 350.362972,75.16184 C347.370712,75.16184 344.378152,73.9604766 344.378152,68.7091283 L344.378152,64.4522603 C344.378152,59.4408244 346.476795,57.1413891 350.362972,57.1413891 C356.346889,57.1413891 356.346889,61.4312863 356.346889,66.5805442 L346.441893,66.5805442 Z" id="Fill-41"></path>
                <path d="M367.837166,62.4616784 C367.940068,60.2988639 367.148751,58.7885271 364.776005,58.7885271 C363.503279,58.7885271 362.437259,59.5097655 361.99015,60.78019 C361.714242,61.5692885 361.508439,63.937785 361.508439,66.2372203 C361.508439,69.3602847 361.508439,73.5138613 364.707103,73.5138613 C367.424358,73.5138613 367.767964,71.7978423 367.870865,69.7037888 L369.934606,69.7037888 C370.10671,74.3717206 366.805145,75.1620202 365.188513,75.1620202 C359.307196,75.1620202 359.307196,70.5271176 359.307196,66.2372203 C359.307196,64.5212014 359.375796,61.8092008 359.822604,60.5057471 C360.717123,58.0339591 362.677963,57.141269 365.05101,57.141269 C368.04327,57.141269 370.072109,58.8230576 369.900607,62.4616784 L367.837166,62.4616784 Z" id="Fill-43"></path>
                <path d="M373.478682,74.8186062 L373.478682,50.0358696 L375.542423,50.0358696 L375.542423,59.613147 L375.611626,59.613147 C376.608745,58.1718712 377.950071,57.1413591 379.807408,57.1413591 C384.106694,57.1413591 384.554104,60.3334846 384.554104,62.5983894 L384.554104,74.8186062 L382.490062,74.8186062 L382.490062,62.7016808 C382.490062,60.6766884 381.698745,58.7883169 379.291699,58.7883169 C377.434061,58.7883169 375.542423,60.0590417 375.542423,63.937875 L375.542423,74.8186062 L373.478682,74.8186062 Z" id="Fill-45"></path>
                <path d="M393.360344,75.1619901 C389.61167,75.1619901 388.13254,73.3423795 388.166238,69.6692282 L390.264581,69.6692282 C390.264581,72.0377247 390.815494,73.6171227 393.463847,73.6171227 C395.458686,73.6171227 396.421806,72.4845202 396.421806,70.5619184 C396.421806,66.0318085 388.613648,67.1986413 388.613648,61.465967 C388.613648,58.2738415 390.815494,57.141239 393.841452,57.141239 C397.281723,57.141239 398.381743,59.5097354 398.381743,62.1529751 L396.352603,62.1529751 C396.249401,59.9553299 395.664489,58.788497 393.325742,58.788497 C391.846612,58.788497 390.677389,59.7499481 390.677389,61.2948155 C390.677389,65.6192433 398.485547,64.4524105 398.485547,70.2526446 C398.485547,73.5138313 396.593308,75.1619901 393.360344,75.1619901" id="Fill-47"></path>
                <path d="M400.585304,59.1320611 L400.585304,57.4848031 L403.370558,57.4848031 L403.370558,53.9149432 L405.433998,53.022253 L405.433998,57.4848031 L408.942269,57.4848031 L408.942269,59.1320611 L405.433998,59.1320611 L405.433998,70.2527047 C405.433998,72.55214 405.674703,73.1025272 407.326238,73.1025272 C408.013149,73.1025272 408.495761,73.0679966 408.942269,72.9992358 L408.942269,74.7840156 C408.323056,74.8530767 407.634641,74.8876073 406.982331,74.8876073 C404.195573,74.8876073 403.370558,73.651413 403.370558,71.5234294 L403.370558,59.1320611 L400.585304,59.1320611 Z" id="Fill-49"></path>
                <path d="M420.533641,65.9628374 C417.575682,66.0664291 413.105797,65.7226248 413.105797,69.9437612 C413.105797,71.9008936 414.102013,73.5136211 416.234957,73.5136211 C418.608305,73.5136211 420.533641,71.3853372 420.533641,69.1204324 L420.533641,65.9628374 Z M420.672047,72.689992 L420.602844,72.689992 C419.502523,74.3372501 417.81759,75.1620802 415.684947,75.1620802 C412.588583,75.1620802 410.90365,73.0680267 410.90365,70.0473529 C410.90365,63.9723756 417.025672,64.5903226 420.533641,64.3158796 L420.533641,62.8743036 C420.533641,60.3334546 419.777528,58.7882868 417.025672,58.7882868 C415.134636,58.7882868 413.621206,59.7152073 413.621206,61.7750306 L411.41936,61.7750306 C411.592066,58.4462841 414.171216,57.141329 417.198378,57.141329 C418.952513,57.141329 422.597383,57.3136816 422.597383,61.7401998 L422.597383,70.4599181 C422.597383,71.6943107 422.597383,72.7935837 422.80469,74.8185762 L420.672047,74.8185762 L420.672047,72.689992 Z" id="Fill-51"></path>
                <path d="M428.824322,59.818799 L428.893524,59.818799 C429.753442,58.1718412 431.576479,57.141329 433.674821,57.141329 L433.674821,59.2353826 C430.751162,58.9954702 428.824322,60.7457195 428.824322,63.6634021 L428.824322,74.8185762 L426.760881,74.8185762 L426.760881,57.4848331 L428.824322,57.4848331 L428.824322,59.818799 Z" id="Fill-53"></path>
                <path d="M440.623302,75.1619901 C436.874628,75.1619901 435.395498,73.3423795 435.4301,69.6692282 L437.528442,69.6692282 C437.528442,72.0377247 438.078753,73.6171227 440.727106,73.6171227 C442.721645,73.6171227 443.685066,72.4845202 443.685066,70.5619184 C443.685066,66.0318085 435.876607,67.1986413 435.876607,61.465967 C435.876607,58.2738415 438.078753,57.141239 441.104411,57.141239 C444.544682,57.141239 445.645003,59.5097354 445.645003,62.1529751 L443.615863,62.1529751 C443.51236,59.9553299 442.927448,58.788497 440.588701,58.788497 C439.109872,58.788497 437.940348,59.7499481 437.940348,61.2948155 C437.940348,65.6192433 445.748506,64.4524105 445.748506,70.2526446 C445.748506,73.5138313 443.856267,75.1619901 440.623302,75.1619901" id="Fill-55"></path>
                <path d="M447.303789,57.0580653 L447.694032,57.0580653 C447.814083,57.0547624 447.910967,57.0262372 447.984381,56.9709883 C448.057796,56.9163399 448.094203,56.8442761 448.094203,56.7544966 C448.094203,56.63409 448.061708,56.548214 447.996718,56.4977694 C447.931727,56.4470245 447.815587,56.4215019 447.648899,56.4215019 L447.303789,56.4215019 L447.303789,57.0580653 Z M447.303789,57.3775481 L447.303789,58.2218955 L446.951157,58.2218955 L446.951157,56.1020191 L447.641678,56.1020191 C447.896825,56.1020191 448.094805,56.1563672 448.235918,56.2656639 C448.376429,56.3746604 448.447136,56.5329005 448.447136,56.7409847 C448.447136,56.9460662 448.340023,57.1022044 448.126999,57.2106003 C448.330394,57.293774 448.432995,57.4634241 448.4348,57.7198511 L448.4348,57.8720859 C448.4348,58.0153126 448.448641,58.1183038 448.476923,58.1816599 L448.476923,58.2218955 L448.114362,58.2218955 C448.090893,58.1618423 448.079159,58.0546475 448.079159,57.9009114 C448.079159,57.746875 448.076752,57.6555942 448.072239,57.6273693 C448.045159,57.4676279 447.936241,57.3844542 447.744279,57.3775481 L447.303789,57.3775481 Z M446.183008,57.1892815 C446.183008,57.4754348 446.249804,57.7402692 446.383094,57.9837847 C446.516986,58.2276006 446.698116,58.4182693 446.927387,58.5560913 C447.156658,58.6942136 447.404584,58.763575 447.671465,58.763575 C447.939851,58.763575 448.189281,58.6930125 448.419455,58.5527884 C448.64993,58.4119637 448.830157,58.2209947 448.961341,57.9801815 C449.091924,57.7390681 449.157516,57.4754348 449.157516,57.1892815 C449.157516,56.9049298 449.091924,56.6424975 448.961341,56.4022849 C448.830157,56.1623725 448.64993,55.9726045 448.419455,55.8335815 C448.189281,55.6945584 447.939851,55.625197 447.671465,55.625197 C447.404584,55.625197 447.156358,55.6939579 446.926184,55.8308791 C446.69601,55.9681005 446.51488,56.1581688 446.382191,56.4010838 C446.249503,56.6436985 446.183008,56.9064311 446.183008,57.1892815 L446.183008,57.1892815 Z M445.895366,57.1901823 C445.895366,56.8541849 445.973294,56.5422087 446.129752,56.2542538 C446.285308,55.9665992 446.501039,55.7395983 446.777248,55.5744521 C447.053155,55.4087054 447.351629,55.3255318 447.671465,55.3255318 C447.991603,55.3255318 448.289475,55.4087054 448.56448,55.5744521 C448.839786,55.7395983 449.055216,55.9665992 449.211674,56.2542538 C449.36723,56.5422087 449.445158,56.8541849 449.445158,57.1901823 C449.445158,57.5183728 449.370238,57.8258449 449.220099,58.1119982 C449.069959,58.3981515 448.856936,58.6281551 448.581028,58.8023093 C448.30482,58.9761631 448.001532,59.06294 447.671465,59.06294 C447.342904,59.06294 447.040819,58.9767637 446.764912,58.8047114 C446.489004,58.6323588 446.274777,58.4029558 446.123133,58.1168025 C445.971188,57.8306492 445.895366,57.5216757 445.895366,57.1901823 L445.895366,57.1901823 Z" id="Fill-57"></path>
                <polygon id="Fill-59" points="315.540622 76.99205 315.84722 76.99205 315.84722 11.6437065 315.540622 11.6437065"></polygon>
                <path d="M34.0161097,20.9731145 C34.0161097,20.4848823 30.1401631,19.9444039 25.359468,19.9444039 C20.5787729,19.9444039 16.7031272,20.4848823 16.7031272,20.9731145 C16.7031272,21.4613467 20.5787729,22.0021253 25.359468,22.0021253 C30.1401631,22.0021253 34.0161097,21.4613467 34.0161097,20.9731145" id="Fill-61"></path>
                <path d="M21.5953588,9.88465947 C24.3303654,9.88465947 26.547556,7.67200092 26.547556,4.9422847 C26.547556,2.21286874 24.3303654,0.000210186048 21.5953588,0.000210186048 C18.8603523,0.000210186048 16.6428608,2.21286874 16.6428608,4.9422847 C16.6428608,7.67200092 18.8603523,9.88465947 21.5953588,9.88465947" id="Fill-62"></path>
                <path d="M29.3151179,15.3437016 C31.2687369,15.3437016 32.8534761,13.7628022 32.8534761,11.8128762 C32.8534761,9.86264999 31.2687369,8.28175065 29.3151179,8.28175065 C27.3614988,8.28175065 25.7767596,9.86264999 25.7767596,11.8128762 C25.7767596,13.7628022 27.3614988,15.3437016 29.3151179,15.3437016" id="Fill-63"></path>
                <path d="M25.3836889,69.6671864 C12.8438795,69.6671864 5.012253,69.1098931 2.55857003,68.6402774 L17.8318815,31.4310414 C17.9414021,31.1644054 17.9444109,30.8662415 17.840908,30.5981041 L13.6213555,19.6615235 C15.6116821,19.1699884 19.9759582,18.2751964 25.3680431,18.2751964 C30.76765,18.2751964 35.1391473,19.1720903 37.1267659,19.6633251 L33.0001856,30.5431555 C32.8993906,30.8097915 32.9027002,31.104052 33.0107165,31.3676853 L48.2118166,68.6393766 C45.7602398,69.1092926 37.9274097,69.6671864 25.3836889,69.6671864 M50.6826497,68.7126415 L35.2715348,30.9274957 L39.6821466,19.2991027 C39.792269,19.0084455 39.7778267,18.6862603 39.6421294,18.4070131 C39.5061313,18.1277659 39.2609135,17.9166791 38.9645459,17.8235967 C38.7301597,17.7503318 33.1328741,16.0192996 25.3680431,16.0192996 C24.9874289,16.0192996 24.613434,16.0244041 24.2436515,16.032211 C24.3760391,15.7073234 24.4503566,15.3527096 24.4503566,14.9806802 C24.4503566,13.4367136 23.1962854,12.1852058 21.6491563,12.1852058 C20.1023281,12.1852058 18.8482569,13.4367136 18.8482569,14.9806802 C18.8482569,15.48873 18.9866621,15.964351 19.2243579,16.3754148 C14.8056224,16.8861669 11.9427415,17.7713504 11.7763544,17.8235967 C11.4787833,17.9169793 11.2332646,18.128967 11.0978682,18.4097155 C10.9624718,18.6907643 10.9492331,19.0144508 11.0611607,19.3048078 L15.5695587,30.9902512 L0.0862324392,68.7102393 C-0.0202793664,69.0075025 0.00198581332,69.2567231 0.00198581332,69.2567231 C0.00198581332,70.5406595 1.59153911,70.7793708 2.86907902,70.9709404 C4.1219467,71.1589068 5.90255931,71.3270556 8.16127152,71.4699821 C12.7641461,71.762441 18.880752,71.9233835 25.3836889,71.9233835 C31.8872275,71.9233835 38.0038334,71.762441 42.6070089,71.4699821 C44.8654202,71.3270556 46.645732,71.1589068 47.8985996,70.9709404 C49.1761395,70.7793708 50.7659937,70.5406595 50.7659937,69.2567231 C50.7659937,69.2567231 50.7659937,68.9648647 50.6826497,68.7126415" id="Fill-64"></path>
                <path d="M30.6905343,49.3356198 C30.0177648,49.7773107 29.4686573,50.3691346 29.0308758,51.0420302 C28.6102444,51.6882022 28.3069565,52.4091403 28.1444809,53.1628074 C28.0515087,53.5945896 28.0048722,54.03568 28.0048722,54.4770707 L28.0048722,56.513173 C27.0465668,56.0405547 26.0332003,55.7718168 24.9647725,55.7718168 C24.8552519,55.7718168 24.5543711,55.7742189 24.5543711,55.779924 L24.5543711,49.7139546 C24.5543711,48.0600907 23.9793879,46.3290585 22.6377604,45.1970565 L22.6377604,42.0905067 C22.6377604,39.7742564 24.8206506,37.7453606 27.1422469,37.7453606 C29.4641441,37.7453606 31.6467335,39.7691519 31.6467335,42.0826998 L31.6467335,48.7549057 L31.6467335,48.8143584 L31.6467335,48.8290714 C31.3088443,48.9563841 30.9914151,49.1380449 30.6905343,49.3356198 M44.8364454,66.7645471 L40.6557066,56.5254839 L40.6557066,54.4812745 C40.6557066,52.7820704 40.0416089,51.186458 38.8522271,49.9883976 C38.5332934,49.6671132 38.2065368,49.3845631 37.8358517,49.1425489 C37.8310376,49.1398465 30.6631541,31.1908588 30.6631541,31.1908588 C30.6454022,31.1434168 30.6123053,31.0584416 30.5464124,31.0584416 C29.1036889,31.1968641 27.3140499,31.2857428 25.375174,31.2857428 C23.4323866,31.2857428 21.6397388,31.1962636 20.1949091,31.0575408 C20.1287153,31.0575408 20.0893,31.1386126 20.0685392,31.184253 C20.0685392,31.184253 14.7128608,44.5199571 14.7083476,44.5235603 C13.0814851,45.6765809 12.0954987,47.5751615 12.0954987,49.7169573 L12.0954987,51.4197645 L5.91269899,66.7624452 C6.95464923,67.1479865 13.245766,67.4320379 14.2040714,67.34406 L14.2040714,49.7172576 C14.2040714,47.4016079 16.0195862,45.5171398 18.332156,45.5171398 C20.6450268,45.5171398 22.4464002,47.3998063 22.4464002,49.7139546 L22.4464002,56.2306229 C20.3378275,57.1578436 18.804238,59.3897192 18.804238,61.9915222 L18.804238,67.5905783 L20.9128107,67.5905783 L20.9128107,61.9915222 C20.9128107,59.7935767 22.7229097,58.005494 24.9530382,58.005494 C27.1663174,58.005494 28.9634785,59.7968796 28.9634785,61.9984283 L28.9634785,67.5905783 L31.2634113,67.5905783 L31.2634113,61.9984283 C31.2634113,60.74632 30.8797883,59.5797874 30.2383104,58.6021221 C30.2380096,57.2308082 30.2325937,54.330541 30.2340981,54.3533612 C30.3920605,52.1878444 32.2117877,50.4541098 34.4217572,50.4541098 C36.6320276,50.4541098 38.4514538,52.1503112 38.6097171,54.3155278 C38.6127259,54.2812975 38.6064074,67.0603089 38.6061066,67.3443603 C39.1028608,67.3071274 43.9304933,67.1167588 44.8364454,66.7645471" id="Fill-65"></path>
                <path d="M16.5282853,51.8644068 C17.1408787,51.861996 17.6355267,51.3644556 17.6328299,50.7534147 C17.6304117,50.1426741 17.1318522,49.6487369 16.5201616,49.651726 C15.9072674,49.6541417 15.4126193,50.1519824 15.4156145,50.762723 C15.4180352,51.3731633 15.915692,51.8668002 16.5282853,51.8644068" id="Fill-66"></path>
                <path d="M21.2019382,50.7521836 C21.19952,50.1411428 20.7012614,49.6475058 20.0886681,49.6501972 C19.4757739,49.6532109 18.9817276,50.1498505 18.9841259,50.7608913 C18.9874444,51.3722325 19.4848003,51.8658694 20.0970928,51.8631781 C20.7102879,51.8610652 21.204635,51.3629242 21.2019382,50.7521836" id="Fill-67"></path>
                <path d="M25.4515676,43.5153389 C26.06386,43.513226 26.5585081,43.0153854 26.5558112,42.4043445 C26.5530922,41.7939042 26.0548336,41.2996667 25.4431429,41.3026557 C24.8302487,41.3050715 24.3356007,41.8029121 24.3385958,42.4136527 C24.3407157,43.0243933 24.8386734,43.5180303 25.4515676,43.5153389" id="Fill-68"></path>
                <path d="M29.0201343,43.5144358 C29.6333294,43.512025 30.1273757,43.0141843 30.1249774,42.4028432 C30.1225616,41.7921026 29.6240021,41.2984656 29.0117097,41.3014546 C28.3988155,41.3044709 27.9047692,41.8011105 27.9071675,42.4118511 C27.9104859,43.0231923 28.4078419,43.5168292 29.0201343,43.5144358" id="Fill-69"></path>
                <path d="M32.6859457,56.6443378 C33.2982382,56.641927 33.7928862,56.1440863 33.7901893,55.533646 C33.7871695,54.9226051 33.2892117,54.4289682 32.6775211,54.4316595 C32.064326,54.4340727 31.5696779,54.9316131 31.5729711,55.542654 C31.5753947,56.1530943 32.0730515,56.6467312 32.6859457,56.6443378" id="Fill-70"></path>
                <path d="M37.3586985,55.5321146 C37.3565786,54.9210738 36.8580192,54.4274368 36.2457267,54.4301282 C35.6331334,54.4331419 35.1390871,54.9297815 35.1414854,55.5408223 C35.144503,56.1518632 35.6421598,56.6458004 36.2544523,56.6431091 C36.8676473,56.6406959 37.3616936,56.1428552 37.3586985,55.5321146" id="Fill-71"></path>
                <path d="M23.3298464,62.798914 C23.9069358,62.7965047 24.3726993,62.3277899 24.3703015,61.7521804 C24.3675843,61.1768711 23.8985111,60.7114592 23.3217226,60.7141498 C22.7446332,60.7165637 22.278268,61.1852786 22.2815602,61.7608881 C22.283383,62.3361973 22.7524561,62.8010087 23.3298464,62.798914" id="Fill-72"></path>
                <path d="M27.732286,61.7505889 C27.730168,61.1749794 27.260794,60.7098677 26.6840055,60.7128559 C26.1066152,60.7155728 25.6411526,61.1836872 25.6432516,61.7592967 C25.6459667,62.3349062 26.114739,62.8000179 26.6918284,62.7979231 C27.2695195,62.7952136 27.7349821,62.3264987 27.732286,61.7505889" id="Fill-73"></path>
                <path d="M27.2559799,46.7167917 C26.5642549,46.7167917 25.8728308,46.5294258 25.2692639,46.1543939 C24.9777104,45.9730333 24.8883488,45.5895939 25.0697799,45.2983361 C25.2521137,45.0070783 25.6357367,44.9181996 25.927892,45.0992599 C26.7348543,45.601004 27.7771054,45.6004035 28.5843686,45.0989596 C28.876223,44.9181996 29.2604478,45.0070783 29.4424807,45.2980359 C29.6239118,45.5892937 29.5348511,45.9724328 29.2429967,46.1540936 C28.6397307,46.5294258 27.9477049,46.7167917 27.2559799,46.7167917" id="Fill-74"></path>
                <path d="M18.3462072,55.1684928 C17.6544822,55.1684928 16.9630581,54.9811269 16.3594912,54.606095 C16.0676368,54.4247344 15.9785761,54.0415953 16.1600072,53.7500372 C16.3417392,53.4587794 16.7256632,53.3696005 17.0178184,53.550961 C17.8250816,54.0524048 18.8676336,54.0521046 19.6748968,53.550961 C19.9667512,53.3696005 20.350976,53.4584791 20.532708,53.7500372 C20.71444,54.041295 20.6250784,54.4244342 20.333224,54.606095 C19.729958,54.9808266 19.0379322,55.1684928 18.3462072,55.1684928" id="Fill-75"></path>
                <path d="M25.0140568,65.9405277 C24.3226327,65.9405277 23.6309078,65.7531619 23.0273409,65.3781299 C22.7357874,65.1964691 22.6464258,64.81333 22.8281578,64.5217719 C23.0101906,64.2308143 23.3938137,64.1413351 23.6862698,64.3229959 C24.4932321,64.8241395 25.5357841,64.8244398 26.3427465,64.3223954 C26.6343,64.1413351 27.0185248,64.2302138 27.2005576,64.5214716 C27.3822896,64.8127294 27.2932289,65.1961688 27.0010737,65.3775294 C26.3978076,65.7528616 25.7060827,65.9405277 25.0140568,65.9405277" id="Fill-76"></path>
                <path d="M34.4794661,59.9742166 C33.7877411,59.9742166 33.096317,59.7868507 32.4927501,59.4118188 C32.2011966,59.230158 32.111835,58.8470188 32.2935671,58.555761 C32.4755999,58.2645032 32.8595239,58.1756245 33.1513782,58.3566848 C33.9586414,58.8581287 35.0011934,58.8581287 35.8081558,58.3566848 C36.1000101,58.1753243 36.483934,58.2645032 36.6662678,58.5554608 C36.8476989,58.8470188 36.7583373,59.2298577 36.466483,59.4118188 C35.8632169,59.7868507 35.1711911,59.9742166 34.4794661,59.9742166" id="Fill-77"></path>
                <path d="M226.180196,62.1637547 C226.668826,62.1637547 227.069901,62.2469283 227.382817,62.4129753 L227.016344,63.5975238 C226.781657,63.4810207 226.517784,63.4224688 226.224425,63.4224688 C225.891952,63.4224688 225.620859,63.5374706 225.410844,63.7659729 C225.200528,63.9953759 225.095822,64.3001457 225.095822,64.6805825 L225.095822,65.5879856 L226.972114,65.5879856 L226.972114,66.8166732 L225.095822,66.8166732 L225.095822,72.7568312 L223.746973,72.7568312 L223.746973,66.8166732 L222.398124,66.8166732 L222.398124,65.5879856 L223.746973,65.5879856 L223.746973,64.5487658 C223.746973,63.8368356 223.974138,63.2615264 224.428769,62.8222375 C224.882798,62.3835492 225.466808,62.1637547 226.180196,62.1637547" id="Fill-78"></path>
                <path d="M228.702149,69.1724985 C228.702149,69.9426802 228.926606,70.5672331 229.376724,71.0446557 C229.826239,71.5232793 230.383471,71.7616903 231.048116,71.7616903 C231.712461,71.7616903 232.269392,71.5232793 232.71981,71.0446557 C233.169025,70.5672331 233.393783,69.9426802 233.393783,69.1724985 C233.393783,68.411625 233.169025,67.7921767 232.71981,67.3144538 C232.260064,66.8268222 231.703134,66.5827061 231.048116,66.5827061 C230.3934,66.5827061 229.836469,66.8268222 229.376724,67.3144538 C228.926606,67.7921767 228.702149,68.411625 228.702149,69.1724985 M227.353902,69.1724985 C227.353902,68.0705231 227.700517,67.1586159 228.394649,66.436777 C229.097807,65.7146378 229.982397,65.3537183 231.048116,65.3537183 C232.113235,65.3537183 232.99301,65.7146378 233.686841,66.436777 C234.390902,67.1586159 234.742632,68.0705231 234.742632,69.1724985 C234.742632,70.2843827 234.390902,71.1962899 233.686841,71.90822 C232.99301,72.6303592 232.113235,72.9912787 231.048116,72.9912787 C229.982397,72.9912787 229.097807,72.6303592 228.394649,71.90822 C227.700517,71.1863811 227.353902,70.2744739 227.353902,69.1724985" id="Fill-79"></path>
                <path d="M237.088299,72.7569213 L235.73945,72.7569213 L235.73945,65.5880757 L237.029928,65.5880757 L237.029928,66.7582115 L237.088299,66.7582115 C237.225199,66.3777747 237.505921,66.0540882 237.931066,65.7850501 C238.35621,65.517213 238.774134,65.3829942 239.184836,65.3829942 C239.575981,65.3829942 239.908154,65.441546 240.181353,65.5580491 L239.771253,66.8609024 C239.604866,66.792742 239.340993,66.7582115 238.979335,66.7582115 C238.471448,66.7582115 238.028852,66.9626925 237.652751,67.3728555 C237.276349,67.7824181 237.088299,68.2604412 237.088299,68.8066246 L237.088299,72.7569213 Z" id="Fill-80"></path>
                <path d="M250.121372,69.9551413 C250.121372,70.8748554 249.784085,71.6129086 249.109811,72.1699017 C248.425608,72.7172862 247.594876,72.9911286 246.617314,72.9911286 C245.747167,72.9911286 244.980222,72.7377043 244.315275,72.2302551 C243.650629,71.7234065 243.191786,71.0306933 242.937241,70.1527161 L244.227719,69.62605 C244.315275,69.9383264 244.438034,70.2211767 244.594192,70.4746011 C244.750349,70.7280254 244.933585,70.9454178 245.143901,71.1255773 C245.354217,71.3063373 245.585895,71.4474622 245.84044,71.5501531 C246.094383,71.6522435 246.363371,71.7032886 246.6465,71.7032886 C247.262102,71.7032886 247.765776,71.5450486 248.156921,71.2279679 C248.547765,70.9114878 248.743338,70.4887136 248.743338,69.9626479 C248.743338,69.5236593 248.582066,69.1480268 248.259522,68.8357504 C247.956535,68.5339833 247.389374,68.2412242 246.558642,67.9580735 C245.717681,67.6557059 245.195652,67.4512249 244.990151,67.3437298 C243.875989,66.7777288 243.318758,65.9441909 243.318758,64.8413147 C243.318758,64.0708327 243.626258,63.4126501 244.242462,62.8667669 C244.867391,62.3202832 245.635239,62.0470414 246.543899,62.0470414 C247.345446,62.0470414 248.039879,62.2521229 248.625994,62.6613851 C249.212411,63.0616394 249.603255,63.5642844 249.799129,64.1687194 L248.537535,64.6953856 C248.420794,64.3053403 248.188514,63.9810533 247.841899,63.7225244 C247.494683,63.4642958 247.071644,63.3348813 246.573085,63.3348813 C246.045941,63.3348813 245.600939,63.4805102 245.238979,63.7714677 C244.87732,64.0438088 244.697093,64.3978222 244.697093,64.8350091 C244.697093,65.1944273 244.838206,65.5055026 245.122237,65.7676347 C245.434552,66.0297667 246.113941,66.3405418 247.159501,66.6993594 C248.225221,67.0614799 248.985547,67.5040717 249.439576,68.0268344 C249.894207,68.5498974 250.121372,69.1930667 250.121372,69.9551413" id="Fill-81"></path>
                <path d="M253.845073,72.8736346 C253.258957,72.8736346 252.772734,72.6934751 252.386403,72.3325556 C252.000072,71.9716362 251.802092,71.4689913 251.792765,70.825822 L251.792765,66.8166732 L250.531473,66.8166732 L250.531473,65.5879856 L251.792765,65.5879856 L251.792765,63.393343 L253.141614,63.393343 L253.141614,65.5879856 L254.900864,65.5879856 L254.900864,66.8166732 L253.141614,66.8166732 L253.141614,70.3871336 C253.141614,70.8648565 253.234586,71.1891435 253.419928,71.3596945 C253.605572,71.5305457 253.815887,71.6158212 254.050574,71.6158212 C254.15829,71.6158212 254.262996,71.6035103 254.365296,71.5788885 C254.468197,71.5548673 254.563576,71.5233394 254.652035,71.4840045 L255.07718,72.6835663 C254.724848,72.8102785 254.314748,72.8736346 253.845073,72.8736346" id="Fill-82"></path>
                <path d="M256.984343,70.5620985 C256.984343,70.9131092 257.132978,71.2058684 257.431151,71.4400757 C257.729625,71.6739827 258.078646,71.7916869 258.47972,71.7916869 C259.046279,71.7916869 259.55206,71.5818011 259.997363,71.1623298 C260.441764,70.7431588 260.663814,70.2504226 260.663814,69.6844216 C260.243785,69.3526279 259.657368,69.1868812 258.904865,69.1868812 C258.356961,69.1868812 257.900826,69.3183976 257.534052,69.5817307 C257.167278,69.8450638 256.984343,70.1720533 256.984343,70.5620985 M258.728549,65.3536883 C259.725668,65.3536883 260.512772,65.6197237 261.08926,66.1508939 C261.665747,66.6826646 261.954593,67.4120102 261.954593,68.3383301 L261.954593,72.7570414 L260.663814,72.7570414 L260.663814,71.7616603 L260.605443,71.7616603 C260.048513,72.5813859 259.305638,72.9912487 258.376819,72.9912487 C257.584901,72.9912487 256.922662,72.7570414 256.390404,72.2886268 C255.857544,71.8205124 255.591265,71.2355947 255.591265,70.5329727 C255.591265,69.7919168 255.871987,69.2018945 256.434032,68.7626057 C256.996077,68.3239174 257.746173,68.1038226 258.684921,68.1038226 C259.486167,68.1038226 260.145998,68.2506525 260.663814,68.5431114 L260.663814,68.2356392 C260.663814,67.7678251 260.478472,67.3702732 260.106884,67.0435841 C259.735296,66.7165946 259.300523,66.5532501 258.801964,66.5532501 C258.049461,66.5532501 257.453115,66.8703307 257.013829,67.5044921 L255.825651,66.7583316 C256.480668,65.8218026 257.448,65.3536883 258.728549,65.3536883" id="Fill-83"></path>
                <path d="M271.630258,72.8736346 C271.04354,72.8736346 270.557317,72.6934751 270.171287,72.3325556 C269.785257,71.9716362 269.587277,71.4689913 269.577348,70.825822 L269.577348,66.8166732 L268.316657,66.8166732 L268.316657,65.5879856 L269.577348,65.5879856 L269.577348,63.393343 L270.926197,63.393343 L270.926197,65.5879856 L272.685447,65.5879856 L272.685447,66.8166732 L270.926197,66.8166732 L270.926197,70.3871336 C270.926197,70.8648565 271.019169,71.1891435 271.205113,71.3596945 C271.390757,71.5305457 271.60047,71.6158212 271.835158,71.6158212 C271.942873,71.6158212 272.048181,71.6035103 272.150781,71.5788885 C272.25278,71.5548673 272.348761,71.5233394 272.436618,71.4840045 L272.861763,72.6835663 C272.510033,72.8102785 272.099331,72.8736346 271.630258,72.8736346 L271.630258,72.8736346 Z M263.214922,65.5879856 L264.504498,65.5879856 L264.504498,66.7584217 L264.563169,66.7584217 C264.964243,65.84141 265.790161,65.3832044 267.041224,65.3832044 L267.319538,65.4120299 L267.319538,66.8166732 L266.71898,66.7584217 C266.093449,66.7584217 265.577439,66.950892 265.171851,67.3364333 C264.766264,67.721374 264.563169,68.211708 264.563169,68.8065346 L264.563169,72.7568312 L263.214922,72.7568312 L263.214922,65.5879856 Z" id="Fill-84"></path>
                <path d="M280.086934,72.7569213 L278.796456,72.7569213 L278.796456,71.7618405 L278.738085,71.7618405 C278.532584,72.1131514 278.217562,72.4059106 277.792417,72.6401179 C277.367272,72.8737247 276.924677,72.9911286 276.465232,72.9911286 C275.585757,72.9911286 274.909076,72.7401064 274.434888,72.2377617 C273.960399,71.7351168 273.723907,71.0207845 273.723907,70.0944646 L273.723907,65.5880757 L275.072755,65.5880757 L275.072755,70.0061864 C275.102242,71.1763222 275.693172,71.7618405 276.846749,71.7618405 C277.384122,71.7618405 277.833638,71.5450486 278.195296,71.1108643 C278.556955,70.6769802 278.738085,70.1578207 278.738085,69.5527851 L278.738085,65.5880757 L280.086934,65.5880757 L280.086934,72.7569213 Z" id="Fill-85"></path>
                <path d="M284.924255,71.7617204 C285.569343,71.7617204 286.111831,71.5182048 286.551418,71.0305732 C286.991607,70.5528503 287.211551,69.9328015 287.211551,69.1725285 C287.211551,68.4215638 286.991607,67.8021155 286.551418,67.3141836 C286.111831,66.826552 285.569343,66.5827362 284.924255,66.5827362 C284.269538,66.5827362 283.722236,66.826552 283.282348,67.3141836 C282.852089,67.8021155 282.63726,68.4215638 282.63726,69.1725285 C282.63726,69.9328015 282.852089,70.557054 283.282348,71.0446857 C283.722236,71.5233093 284.269538,71.7617204 284.924255,71.7617204 M285.143898,72.9913087 C284.617056,72.9913087 284.135045,72.8787091 283.700573,72.6547108 C283.265198,72.4304123 282.930619,72.1325486 282.695932,71.7617204 L282.63726,71.7617204 L282.695932,72.7568012 L282.695932,75.9170985 L281.346782,75.9170985 L281.346782,65.5879556 L282.63726,65.5879556 L282.63726,66.5827362 L282.695932,66.5827362 C282.930619,66.2125084 283.265198,65.9146448 283.700573,65.6897457 C284.135045,65.4657474 284.617056,65.3537483 285.143898,65.3537483 C286.092274,65.3537483 286.893821,65.7248768 287.548838,66.4656325 C288.223112,67.2168975 288.560399,68.1188959 288.560399,69.1725285 C288.560399,70.2354694 288.223112,71.1380683 287.548838,71.8794246 C286.893821,72.6201802 286.092274,72.9913087 285.143898,72.9913087" id="Fill-86"></path>
                <path d="M295.138918,70.76709 C295.138918,71.3916428 294.865116,71.918309 294.317814,72.347689 C293.76991,72.7761683 293.080893,72.9911586 292.250462,72.9911586 C291.527144,72.9911586 290.891684,72.802892 290.344382,72.4275597 C289.79708,72.0525278 289.406236,71.5573895 289.171549,70.9430457 L290.373567,70.430492 C290.549884,70.8598721 290.806535,71.1940679 291.143822,71.4330795 C291.480508,71.6717908 291.849388,71.7915968 292.250462,71.7915968 C292.680421,71.7915968 293.039672,71.699115 293.327916,71.5132504 C293.61616,71.3279864 293.760583,71.1090927 293.760583,70.8547676 C293.760583,70.396562 293.408853,70.0602643 292.704792,69.845274 L291.473588,69.5384024 C290.075394,69.1867912 289.37705,68.5138955 289.37705,67.5188147 C289.37705,66.8660369 289.642728,66.3411723 290.175588,65.9463228 C290.708448,65.5514733 291.390244,65.3538984 292.221276,65.3538984 C292.856135,65.3538984 293.430516,65.5049321 293.943518,65.8072998 C294.45652,66.1099677 294.816373,66.5144257 295.020972,67.0218749 L293.818953,67.5188147 C293.682053,67.2170476 293.460003,66.9804382 293.151901,66.8092867 C292.844401,66.6393363 292.499591,66.5534602 292.118375,66.5534602 C291.766645,66.5534602 291.451022,66.6411378 291.172707,66.8167933 C290.894091,66.9927491 290.755385,67.2071388 290.755385,67.4602629 C290.755385,67.8707262 291.141114,68.1628848 291.912874,68.3382401 L292.998151,68.6165864 C294.424927,68.9675971 295.138918,69.6846318 295.138918,70.76709" id="Fill-87"></path>
                <path d="M177.310293,72.9877056 C174.036409,72.9877056 171.28365,70.327651 171.28365,67.0598585 C171.28365,63.7923662 174.036409,61.1323117 177.310293,61.1323117 C179.121595,61.1323117 180.41087,61.8406387 181.381511,62.7660578 L180.236961,63.9079686 C179.541324,63.2575929 178.599868,62.7513448 177.310293,62.7513448 C174.920096,62.7513448 173.050723,64.6742468 173.050723,67.0598585 C173.050723,69.4454701 174.920096,71.3683722 177.310293,71.3683722 C178.860431,71.3683722 179.744118,70.7465218 180.309473,70.1829229 C180.772528,69.7202133 181.077621,69.0551246 181.192859,68.1441182 L177.310293,68.1441182 L177.310293,66.5253854 L182.771881,66.5253854 C182.830553,66.8142411 182.859137,67.1613483 182.859137,67.5372811 C182.859137,68.7518562 182.525761,70.2549867 181.454023,71.3251339 C180.41087,72.4093937 179.077968,72.9877056 177.310293,72.9877056" id="Fill-88"></path>
                <path d="M189.656696,69.170757 C189.656696,67.7973413 188.674922,66.8575094 187.537292,66.8575094 C186.39936,66.8575094 185.417887,67.7973413 185.417887,69.170757 C185.417887,70.5297599 186.39936,71.4840045 187.537292,71.4840045 C188.674922,71.4840045 189.656696,70.5297599 189.656696,69.170757 M191.306726,69.170757 C191.306726,71.3684022 189.61367,72.9877356 187.537292,72.9877356 C185.460913,72.9877356 183.767857,71.3684022 183.767857,69.170757 C183.767857,66.9586989 185.460913,65.3537783 187.537292,65.3537783 C189.61367,65.3537783 191.306726,66.9586989 191.306726,69.170757" id="Fill-89"></path>
                <path d="M198.107204,69.170757 C198.107204,67.7973413 197.125731,66.8575094 195.987499,66.8575094 C194.849568,66.8575094 193.868095,67.7973413 193.868095,69.170757 C193.868095,70.5297599 194.849568,71.4840045 195.987499,71.4840045 C197.125731,71.4840045 198.107204,70.5297599 198.107204,69.170757 M199.756934,69.170757 C199.756934,71.3684022 198.064178,72.9877356 195.987499,72.9877356 C193.911121,72.9877356 192.218365,71.3684022 192.218365,69.170757 C192.218365,66.9586989 193.911121,65.3537783 195.987499,65.3537783 C198.064178,65.3537783 199.756934,66.9586989 199.756934,69.170757" id="Fill-90"></path>
                <path d="M206.518628,69.1851097 C206.518628,67.8405195 205.620499,66.8574493 204.476249,66.8574493 C203.317256,66.8574493 202.346615,67.8405195 202.346615,69.1851097 C202.346615,70.5155873 203.317256,71.4839445 204.476249,71.4839445 C205.620499,71.4839445 206.518628,70.5155873 206.518628,69.1851097 L206.518628,69.1851097 Z M207.996254,65.5852232 L207.996254,72.4384894 C207.996254,75.2576848 206.330578,76.4143086 204.360109,76.4143086 C202.50548,76.4143086 201.390416,75.170908 200.970386,74.1587121 L202.433269,73.5518749 C202.694132,74.1731248 203.331398,74.9105776 204.360109,74.9105776 C205.620499,74.9105776 206.40309,74.1301868 206.40309,72.6693938 L206.40309,72.1202077 L206.344719,72.1202077 C205.968016,72.582617 205.243796,72.9876755 204.330924,72.9876755 C202.419127,72.9876755 200.665895,71.3251039 200.665895,69.1851097 C200.665895,67.0310029 202.419127,65.3537183 204.330924,65.3537183 C205.243796,65.3537183 205.968016,65.7587768 206.344719,66.2067734 L206.40309,66.2067734 L206.40309,65.5852232 L207.996254,65.5852232 Z" id="Fill-91"></path>
                <polygon id="Fill-92" points="209.260796 72.7562006 210.941215 72.7562006 210.941215 61.5370699 209.260796 61.5370699"></polygon>
                <path d="M213.534988,69.0552147 L216.954498,67.6382605 C216.765846,67.1611381 216.201093,66.8287439 215.534642,66.8287439 C214.67984,66.8287439 213.491962,67.5806094 213.534988,69.0552147 M217.548136,70.4286304 L218.851853,71.2960982 C218.432124,71.9179487 217.417855,72.9877956 215.664622,72.9877956 C213.491962,72.9877956 211.922869,71.310511 211.922869,69.170817 C211.922869,66.9008077 213.506103,65.3538384 215.476572,65.3538384 C217.461483,65.3538384 218.432124,66.9299335 218.750456,67.7829886 L218.924365,68.2165724 L213.810294,70.3274408 C214.20174,71.0937191 214.810121,71.4840646 215.664622,71.4840646 C216.519425,71.4840646 217.113664,71.0648936 217.548136,70.4286304" id="Fill-93"></path>
                <path d="M70.154368,70.2460799 L70.154368,63.0925141 L71.075424,63.0925141 L71.075424,70.2460799 L70.154368,70.2460799 Z M72.5170768,70.2460799 L72.5170768,63.0925141 L73.6383623,63.0925141 L77.1223566,68.6575087 L77.1624025,68.6575087 L77.1223566,67.2787488 L77.1223566,63.0925141 L78.0434126,63.0925141 L78.0434126,70.2460799 L77.0823107,70.2460799 L73.4381328,64.4113279 L73.3980868,64.4113279 L73.4381328,65.7900878 L73.4381328,70.2460799 L72.5170768,70.2460799 Z M83.0091056,70.2460799 L82.0880496,70.2460799 L82.0880496,63.0925141 L84.5308502,63.0925141 C85.1382163,63.0925141 85.6638136,63.2939975 86.107658,63.6969704 C86.5515024,64.0999433 86.7734213,64.6078148 86.7734213,65.2206 C86.7734213,65.8333852 86.5515024,66.3412567 86.107658,66.7442296 C85.6638136,67.1472025 85.1382163,67.3486859 84.5308502,67.3486859 L83.0091056,67.3486859 L83.0091056,70.2460799 Z M83.0091056,66.4694767 L84.5508732,66.4694767 C84.9379856,66.4694767 85.2483383,66.3395948 85.4819406,66.0798272 C85.715543,65.8200595 85.8323424,65.5336533 85.8323424,65.2206 C85.8323424,64.9075467 85.715543,64.6211405 85.4819406,64.3613728 C85.2483383,64.1016052 84.9379856,63.9717233 84.5508732,63.9717233 L83.0091056,63.9717233 L83.0091056,66.4694767 Z M85.7322276,70.2460799 L88.4353266,63.0925141 L89.4765203,63.0925141 L92.1796193,70.2460799 L91.1584486,70.2460799 L90.4676566,68.3078232 L87.4542018,68.3078232 L86.7533983,70.2460799 L85.7322276,70.2460799 Z M87.7645576,67.448596 L90.1472893,67.448596 L88.9759464,64.2214986 L88.9359005,64.2214986 L87.7645576,67.448596 Z M93.0205835,70.2460799 L93.0205835,63.0925141 L95.4633841,63.0925141 C96.0707501,63.0925141 96.5963474,63.2939975 97.0401918,63.6969704 C97.4840362,64.0999433 97.7059551,64.6078148 97.7059551,65.2206 C97.7059551,65.7201532 97.5424359,66.1614185 97.2153927,66.5444093 C96.8883495,66.9274001 96.4812201,67.1688472 95.9939924,67.2687578 L95.9739694,67.2987308 L97.9862765,70.2061158 L97.9862765,70.2460799 L96.8950254,70.2460799 L94.9628102,67.3486859 L93.9416394,67.3486859 L93.9416394,70.2460799 L93.0205835,70.2460799 Z M93.9416394,66.4894587 L95.4233382,66.4894587 C95.7904275,66.4894587 96.1057859,66.3695678 96.3694228,66.1297822 C96.6330597,65.8899967 96.7648762,65.586939 96.7648762,65.2206 C96.7648762,64.9075467 96.6480768,64.6211405 96.4144745,64.3613728 C96.1808721,64.1016052 95.8705194,63.9717233 95.483407,63.9717233 L93.9416394,63.9717233 L93.9416394,66.4894587 Z M101.250018,70.2460799 L100.328962,70.2460799 L100.328962,63.9717233 L98.3266667,63.9717233 L98.3266667,63.0925141 L103.252314,63.0925141 L103.252314,63.9717233 L101.250018,63.9717233 L101.250018,70.2460799 Z M104.213416,70.2460799 L104.213416,63.0925141 L105.334701,63.0925141 L108.818696,68.6575087 L108.858741,68.6575087 L108.818696,67.2787488 L108.818696,63.0925141 L109.739752,63.0925141 L109.739752,70.2460799 L108.77865,70.2460799 L105.134472,64.4113279 L105.094426,64.4113279 L105.134472,65.7900878 L105.134472,70.2460799 L104.213416,70.2460799 Z M115.366202,63.9717233 L112.10246,63.9717233 L112.10246,66.2396834 L115.045835,66.2396834 L115.045835,67.0989106 L112.10246,67.0989106 L112.10246,69.3668707 L115.366202,69.3668707 L115.366202,70.2460799 L111.181404,70.2460799 L111.181404,63.0925141 L115.366202,63.0925141 L115.366202,63.9717233 Z M116.607625,70.2460799 L116.607625,63.0925141 L119.050426,63.0925141 C119.657792,63.0925141 120.183389,63.2939975 120.627234,63.6969704 C121.071078,64.0999433 121.292997,64.6078148 121.292997,65.2206 C121.292997,65.7201532 121.129478,66.1614185 120.802435,66.5444093 C120.475391,66.9274001 120.068262,67.1688472 119.581034,67.2687578 L119.561011,67.2987308 L121.573318,70.2061158 L121.573318,70.2460799 L120.482067,70.2460799 L118.549852,67.3486859 L117.528681,67.3486859 L117.528681,70.2460799 L116.607625,70.2460799 Z M117.528681,66.4894587 L119.01038,66.4894587 C119.377469,66.4894587 119.692828,66.3695678 119.956465,66.1297822 C120.220102,65.8899967 120.351918,65.586939 120.351918,65.2206 C120.351918,64.9075467 120.235119,64.6211405 120.001516,64.3613728 C119.767914,64.1016052 119.457561,63.9717233 119.070449,63.9717233 L117.528681,63.9717233 L117.528681,66.4894587 Z M124.416578,70.4059361 C123.895979,70.4059361 123.387067,70.2360905 122.889828,69.8963944 C122.392588,69.5566982 122.067219,69.0804647 121.913709,68.4676794 L122.754673,68.127985 C122.854788,68.5209668 123.060021,68.8523321 123.370379,69.1220908 C123.680736,69.3918495 124.029466,69.5267269 124.416578,69.5267269 C124.817039,69.5267269 125.159095,69.4218223 125.442755,69.2120099 C125.726415,69.0021976 125.868242,68.7174566 125.868242,68.3577783 C125.868242,67.9581357 125.726415,67.6500826 125.442755,67.4336095 C125.159095,67.2171365 124.710251,67.015653 124.096211,66.8291532 C123.462147,66.6293319 122.981601,66.3712333 122.654558,66.0548496 C122.327515,65.738466 122.163996,65.333834 122.163996,64.8409415 C122.163996,64.3280669 122.36756,63.8818061 122.774696,63.5021457 C123.181831,63.1224852 123.712434,62.9326579 124.366521,62.9326579 C124.973887,62.9326579 125.467781,63.0841867 125.848219,63.387249 C126.228657,63.6903113 126.475605,64.0216766 126.589069,64.3813549 L125.748105,64.7310403 C125.688035,64.5045762 125.539533,64.294767 125.302594,64.1016065 C125.065654,63.9084459 124.760307,63.8118671 124.386544,63.8118671 C124.032803,63.8118671 123.730793,63.9101111 123.480505,64.106602 C123.230217,64.3030929 123.105074,64.5478703 123.105074,64.8409415 C123.105074,65.1073698 123.220205,65.3321654 123.45047,65.5153349 C123.680736,65.6985044 124.019454,65.8633545 124.466635,66.0098901 C124.820376,66.1231221 125.115712,66.2330222 125.352651,66.3395935 C125.589591,66.4461649 125.829864,66.5877028 126.073478,66.7642116 C126.317091,66.9407204 126.500633,67.1605205 126.624109,67.4236185 C126.747584,67.6867165 126.809321,67.9914394 126.809321,68.3377963 C126.809321,68.6841531 126.737573,68.9938714 126.594075,69.2669605 C126.450576,69.5400496 126.26036,69.7565194 126.02342,69.9163764 C125.786481,70.0762334 125.531191,70.1977895 125.257542,70.2810484 C124.983894,70.3643073 124.703575,70.4059361 124.416578,70.4059361 Z M127.930607,70.2460799 L127.930607,63.0925141 L128.851663,63.0925141 L128.851663,66.1597553 L132.435772,66.1597553 L132.435772,63.0925141 L133.356828,63.0925141 L133.356828,70.2460799 L132.435772,70.2460799 L132.435772,67.0189825 L128.851663,67.0189825 L128.851663,70.2460799 L127.930607,70.2460799 Z M134.798481,70.2460799 L134.798481,63.0925141 L135.719537,63.0925141 L135.719537,70.2460799 L134.798481,70.2460799 Z M138.082245,70.2460799 L137.161189,70.2460799 L137.161189,63.0925141 L139.60399,63.0925141 C140.211356,63.0925141 140.736953,63.2939975 141.180798,63.6969704 C141.624642,64.0999433 141.846561,64.6078148 141.846561,65.2206 C141.846561,65.8333852 141.624642,66.3412567 141.180798,66.7442296 C140.736953,67.1472025 140.211356,67.3486859 139.60399,67.3486859 L138.082245,67.3486859 L138.082245,70.2460799 Z M138.082245,66.4694767 L139.624013,66.4694767 C140.011125,66.4694767 140.321478,66.3395948 140.55508,66.0798272 C140.788683,65.8200595 140.905482,65.5336533 140.905482,65.2206 C140.905482,64.9075467 140.788683,64.6211405 140.55508,64.3613728 C140.321478,64.1016052 140.011125,63.9717233 139.624013,63.9717233 L138.082245,63.9717233 L138.082245,66.4694767 Z M152.959301,63.0925141 L151.047109,70.2460799 L150.10603,70.2460799 L148.564263,65.5303214 L148.524217,65.5303214 L146.982449,70.2460799 L146.04137,70.2460799 L144.049086,63.0925141 L145.010188,63.0925141 L146.521921,68.7174548 L146.561967,68.7174548 L148.113746,64.0516514 L148.974733,64.0516514 L150.526512,68.7174548 L150.566558,68.7174548 L151.9982,63.0925141 L152.959301,63.0925141 Z M153.840312,70.2460799 L153.840312,63.0925141 L154.761367,63.0925141 L154.761367,70.2460799 L153.840312,70.2460799 Z M158.645821,70.2460799 L157.724765,70.2460799 L157.724765,63.9717233 L155.722469,63.9717233 L155.722469,63.0925141 L160.648116,63.0925141 L160.648116,63.9717233 L158.645821,63.9717233 L158.645821,70.2460799 Z M161.609218,70.2460799 L161.609218,63.0925141 L162.530274,63.0925141 L162.530274,66.1597553 L166.114383,66.1597553 L166.114383,63.0925141 L167.035439,63.0925141 L167.035439,70.2460799 L166.114383,70.2460799 L166.114383,67.0189825 L162.530274,67.0189825 L162.530274,70.2460799 L161.609218,70.2460799 Z" id="INPARTNERSHIPWITH" fill-rule="nonzero"></path>
            </g>
        </g>
    </g>
</svg>